<?xml version="1.0" encoding="UTF-8"?>
<svg width="24px" height="20px" viewBox="0 0 24 20" version="1.1" xmlns="http://www.w3.org/2000/svg" xmlns:xlink="http://www.w3.org/1999/xlink">
    <!-- Generator: Sketch 55.2 (78181) - https://sketchapp.com -->
    <title>Brands/twitter</title>
    <desc>Created with Sketch.</desc>
    <defs>
        <path d="M21.5329687,7.1116875 C21.5482031,7.324875 21.5482031,7.53810937 21.5482031,7.75129687 C21.5482031,14.2537969 16.599,21.7462031 7.55329687,21.7462031 C4.76648437,21.7462031 2.17767187,20.9390625 0,19.5381094 C0.395953125,19.5837656 0.776625,19.599 1.1878125,19.599 C3.48726562,19.599 5.60404687,18.822375 7.29440625,17.4975 C5.13196875,17.4517969 3.31978125,16.0355625 2.69540625,14.0863125 C3,14.1319687 3.30454687,14.1624375 3.624375,14.1624375 C4.06598437,14.1624375 4.50764062,14.1015 4.91878125,13.9949531 C2.66498437,13.5380625 0.974578125,11.5583906 0.974578125,9.16753125 L0.974578125,9.10664062 C1.629375,9.472125 2.39085937,9.70054687 3.19790625,9.73096875 C1.87303125,8.84770312 1.00504688,7.34010937 1.00504688,5.63451562 C1.00504688,4.72082812 1.24865625,3.88326562 1.67507812,3.15229687 C4.09640625,6.1370625 7.73601562,8.08626562 11.8171875,8.2995 C11.7410625,7.93401562 11.6953594,7.55334375 11.6953594,7.172625 C11.6953594,4.4619375 13.8882656,2.25384375 16.6141406,2.25384375 C18.030375,2.25384375 19.3095469,2.84775 20.2080469,3.80714062 C21.3196875,3.59395312 22.3856719,3.18276562 23.329875,2.61932812 C22.9643437,3.76148437 22.1877187,4.720875 21.1674375,5.32996875 C22.1572969,5.22342187 23.1166875,4.94925 23.9999062,4.56857812 C23.3299687,5.54315625 22.4923594,6.41114062 21.5329687,7.1116875 Z" id="path-1"></path>
    </defs>
    <g id="Page-1" stroke="none" stroke-width="1" fill="none" fill-rule="evenodd">
        <g id="Homepage" transform="translate(-709.000000, -1780.000000)">
            <g id="Reviewz" transform="translate(-306.000000, 1669.000000)">
                <g id="Brands/twitter" transform="translate(1014.770428, 109.000000)">
                    <mask id="mask-2" fill="white">
                        <use xlink:href="#path-1"></use>
                    </mask>
                    <g id="Mask"></g>
                    <g id="Color/White" mask="url(#mask-2)" fill="#FFFFFF" fill-rule="evenodd">
                        <rect id="White" x="0" y="0" width="24" height="24"></rect>
                    </g>
                </g>
            </g>
        </g>
    </g>
</svg>