<?xml version="1.0" encoding="utf-8"?>
<!-- Generator: Adobe Illustrator 23.0.2, SVG Export Plug-In . SVG Version: 6.00 Build 0)  -->
<svg version="1.1" id="Layer_1" xmlns="http://www.w3.org/2000/svg" xmlns:xlink="http://www.w3.org/1999/xlink" x="0px" y="0px"
	 viewBox="0 0 145.6 26.2" style="enable-background:new 0 0 145.6 26.2;" xml:space="preserve">
<style type="text/css">
	.st0{fill:#525353;}
	.st1{clip-path:url(#SVGID_14_);}
	.st2{clip-path:url(#SVGID_22_);}
	.st3{clip-path:url(#SVGID_27_);}
	.st4{clip-path:url(#SVGID_28_);}
	.st5{clip-path:url(#SVGID_34_);}
	.st6{clip-path:url(#SVGID_39_);}
	.st7{clip-path:url(#SVGID_40_);}
	.st8{clip-path:url(#SVGID_46_);}
	.st9{clip-path:url(#SVGID_47_);}
	.st10{clip-path:url(#SVGID_48_);}
	.st11{clip-path:url(#SVGID_54_);}
	.st12{clip-path:url(#SVGID_59_);}
	.st13{clip-path:url(#SVGID_60_);}
	.st14{clip-path:url(#SVGID_66_);}
	.st15{clip-path:url(#SVGID_67_);}
	.st16{clip-path:url(#SVGID_68_);}
	.st17{clip-path:url(#SVGID_75_);}
	.st18{clip-path:url(#SVGID_76_);}
	.st19{clip-path:url(#SVGID_77_);}
	.st20{clip-path:url(#SVGID_78_);}
	.st21{fill:#235EA9;}
</style>
<g>
	<g>
		<path d="M38.6,21.7h-1.2v1.8h-0.8v-4.6h2c1.3,0,1.6,0.9,1.6,1.4C40.2,20.8,39.9,21.7,38.6,21.7L38.6,21.7z M38.6,19.5h-1.2V21h1.2
			c0.4,0,0.8-0.2,0.8-0.8C39.4,19.7,39,19.5,38.6,19.5L38.6,19.5z M43.5,23.5c-0.3,0-0.5-0.1-0.6-0.4c-0.3,0.3-0.8,0.4-1.2,0.4
			c-0.6,0-1.1-0.3-1.1-1c0-0.8,0.7-1,1.3-1c0.5-0.1,1,0,1-0.5c0-0.4-0.4-0.5-0.7-0.5c-0.4,0-0.7,0.2-0.7,0.5h-0.7
			c0.1-0.9,0.8-1.1,1.5-1.1s1.3,0.3,1.3,1v1.7c0,0.2,0,0.3,0.2,0.3c0,0,0.1,0,0.2,0v0.5C43.8,23.5,43.6,23.5,43.5,23.5L43.5,23.5z
			 M42.8,21.8c-0.2,0.1-0.6,0.1-0.9,0.2c-0.3,0.1-0.6,0.2-0.6,0.6c0,0.3,0.4,0.4,0.7,0.4s0.8-0.2,0.8-0.6V21.8L42.8,21.8z M46,20.7
			c-0.5,0-0.9,0.4-0.9,1.1v1.6h-0.7v-3.3H45v0.6l0,0c0.1-0.4,0.5-0.7,1-0.7c0.2,0,0.2,0,0.3,0v0.7C46.2,20.7,46.1,20.7,46,20.7
			L46,20.7z M47.9,22.9c0.1,0,0.2,0,0.3,0v0.6c-0.2,0-0.3,0-0.5,0c-0.8,0-0.9-0.3-0.9-0.9v-2h-0.6v-0.5h0.6v-1h0.7v1h0.7v0.5h-0.7
			v1.8C47.6,22.7,47.6,22.9,47.9,22.9L47.9,22.9z M51,23.4v-2.1c0-0.5-0.2-0.7-0.7-0.7s-0.8,0.4-0.8,0.9v2h-0.7v-3.3h0.7v0.4l0,0
			c0.2-0.4,0.6-0.6,1-0.6c0.7,0,1.2,0.4,1.2,1.1v2.3L51,23.4L51,23.4z M55.5,22H53c0,0.5,0.3,1,0.9,1c0.4,0,0.7-0.2,0.8-0.6h0.7
			c-0.2,0.7-0.8,1.1-1.5,1.1c-1,0-1.6-0.7-1.6-1.8c0-0.9,0.6-1.8,1.6-1.8C55,20,55.6,21,55.5,22L55.5,22z M53.9,20.6
			c-0.5,0-0.9,0.4-0.9,0.9h1.7C54.7,21,54.4,20.6,53.9,20.6L53.9,20.6z M57.7,20.7c-0.5,0-0.9,0.4-0.9,1.1v1.6h-0.7v-3.3h0.7v0.6
			l0,0c0.1-0.4,0.5-0.7,1-0.7c0.2,0,0.2,0,0.3,0v0.7C57.9,20.7,57.8,20.7,57.7,20.7L57.7,20.7z M60.2,23.4v-3.3h0.7v3.3H60.2
			L60.2,23.4z M60.2,18.8h0.7v0.7h-0.7V18.8L60.2,18.8z M63.9,23.4v-2.1c0-0.5-0.2-0.7-0.7-0.7s-0.8,0.4-0.8,0.9v2h-0.7v-3.3h0.7
			v0.4l0,0c0.2-0.4,0.6-0.6,1-0.6c0.7,0,1.2,0.4,1.2,1.1v2.3L63.9,23.4L63.9,23.4z M68.8,23.6c-0.2,0.6-0.4,1.1-1.2,1.1
			c-0.2,0-0.3,0-0.5,0v-0.6c0.1,0,0.2,0,0.3,0c0.3,0,0.4-0.2,0.5-0.5l0.1-0.3L66.7,20h0.8l0.9,2.5l0,0l0.8-2.5H70L68.8,23.6
			L68.8,23.6z M72.1,23.5c-1.1,0-1.7-0.7-1.7-1.8c0-1,0.6-1.8,1.7-1.8c1.1,0,1.7,0.7,1.7,1.8C73.8,22.8,73.1,23.5,72.1,23.5
			L72.1,23.5z M72.1,20.6c-0.7,0-0.9,0.6-0.9,1.2s0.3,1.2,0.9,1.2c0.7,0,0.9-0.6,0.9-1.2S72.7,20.6,72.1,20.6L72.1,20.6z M76.6,23.4
			v-0.5l0,0c-0.2,0.3-0.6,0.6-0.9,0.6c-0.9,0-1.2-0.4-1.2-1.3v-2.1h0.7v2c0,0.6,0.2,0.8,0.6,0.8c0.6,0,0.8-0.4,0.8-0.9v-1.9h0.7v3.3
			H76.6L76.6,23.4z M79.7,20.7c-0.5,0-0.9,0.4-0.9,1.1v1.6h-0.7v-3.3h0.7v0.6l0,0c0.1-0.4,0.5-0.7,1-0.7c0.2,0,0.2,0,0.3,0v0.7
			C79.9,20.7,79.8,20.7,79.7,20.7L79.7,20.7z M84,23.5c-0.4,0-0.9-0.2-1.1-0.5l0,0v1.7h-0.7v-4.6h0.7v0.5l0,0c0.2-0.4,0.6-0.5,1-0.5
			c1.1,0,1.6,0.8,1.6,1.8C85.5,22.7,85,23.5,84,23.5L84,23.5z M83.8,20.6c-0.6,0-0.9,0.5-0.9,1.2s0.3,1.2,0.9,1.2
			c0.7,0,0.9-0.6,0.9-1.2S84.4,20.6,83.8,20.6L83.8,20.6z M87.7,20.7c-0.5,0-0.9,0.4-0.9,1.1v1.6h-0.7v-3.3h0.7v0.6l0,0
			c0.1-0.4,0.5-0.7,1-0.7c0.2,0,0.2,0,0.3,0v0.7C87.9,20.7,87.8,20.7,87.7,20.7L87.7,20.7z M89.8,23.5c-1.1,0-1.7-0.7-1.7-1.8
			c0-1,0.6-1.8,1.7-1.8c1.1,0,1.7,0.7,1.7,1.8C91.5,22.8,90.8,23.5,89.8,23.5L89.8,23.5z M89.8,20.6c-0.7,0-0.9,0.6-0.9,1.2
			s0.3,1.2,0.9,1.2c0.7,0,0.9-0.6,0.9-1.2S90.4,20.6,89.8,20.6L89.8,20.6z M93.5,24.8c-0.7,0-1.4-0.3-1.5-1h0.7
			c0.1,0.4,0.4,0.5,0.8,0.5c0.6,0,0.9-0.3,0.9-0.9v-0.5l0,0c-0.2,0.4-0.6,0.6-1,0.6c-1.1,0-1.5-0.8-1.5-1.8c0-0.9,0.6-1.7,1.5-1.7
			c0.4,0,0.8,0.2,1,0.5l0,0V20h0.7v3.2C95.2,24.3,94.6,24.8,93.5,24.8L93.5,24.8z M93.5,20.6c-0.7,0-0.9,0.6-0.9,1.2
			c0,0.5,0.3,1.1,0.9,1.1c0.7,0,0.9-0.6,0.9-1.2S94.2,20.6,93.5,20.6L93.5,20.6z M97.5,20.7c-0.5,0-0.9,0.4-0.9,1.1v1.6h-0.7v-3.3
			h0.7v0.6l0,0c0.1-0.4,0.5-0.7,1-0.7c0.2,0,0.2,0,0.3,0v0.7C97.8,20.7,97.6,20.7,97.5,20.7L97.5,20.7z M101.1,22h-2.5
			c0,0.5,0.3,1,0.9,1c0.4,0,0.7-0.2,0.8-0.6h0.7c-0.2,0.7-0.8,1.1-1.5,1.1c-1,0-1.6-0.7-1.6-1.8c0-0.9,0.6-1.8,1.6-1.8
			C100.6,20,101.2,21,101.1,22L101.1,22z M99.5,20.6c-0.5,0-0.9,0.4-0.9,0.9h1.7C100.3,21,100,20.6,99.5,20.6L99.5,20.6z
			 M102.9,20.6c-0.2,0-0.6,0.1-0.6,0.3c0,0.4,0.5,0.4,1.1,0.5c0.5,0.1,1.1,0.3,1.1,1c0,0.8-0.8,1.1-1.5,1.1c-0.8,0-1.5-0.4-1.5-1.2
			h0.7c0,0.4,0.4,0.6,0.8,0.6c0.3,0,0.8-0.1,0.7-0.4c0-0.4-0.6-0.4-1.1-0.6c-0.5-0.1-1.1-0.3-1.1-1s0.8-1,1.4-1c0.7,0,1.3,0.3,1.4,1
			h-0.8C103.5,20.7,103.2,20.6,102.9,20.6L102.9,20.6z M106.2,20.6c-0.2,0-0.6,0.1-0.6,0.3c0,0.4,0.5,0.4,1.1,0.5
			c0.5,0.1,1.1,0.3,1.1,1c0,0.8-0.8,1.1-1.5,1.1c-0.8,0-1.5-0.4-1.5-1.2h0.7c0,0.4,0.4,0.6,0.8,0.6c0.3,0,0.8-0.1,0.7-0.4
			c0-0.4-0.6-0.4-1.1-0.6c-0.5-0.1-1.1-0.3-1.1-1s0.8-1,1.4-1c0.7,0,1.3,0.3,1.4,1h-0.8C106.8,20.7,106.6,20.6,106.2,20.6
			L106.2,20.6z"/>
		<g>
			<g>
				<polygon id="SVGID_15_" class="st0" points="1.4,21.3 1.4,20.8 34.9,20.8 34.9,21.3 				"/>
			</g>
		</g>
		<g>
			<g>
				<polygon id="SVGID_17_" class="st0" points="109.1,21.3 109.1,20.8 142.7,20.8 142.7,21.3 				"/>
			</g>
		</g>
	</g>
	<g>
		<g>
			<g>
				<path id="SVGID_1_" d="M9.1,8.9C9,9.2,8.8,9.5,8.6,9.7C8.4,10,8.2,10.1,8,10.2c-0.2,0.2-0.4,0.2-0.6,0.3c-0.2,0-0.4,0.1-0.6,0.1
					c-0.2,0-0.5,0-0.7,0H1.8V9h3.7c0.2,0,0.3,0,0.5,0c0.2,0,0.3,0,0.5-0.1c0.2-0.1,0.3-0.2,0.4-0.3c0.1-0.1,0.2-0.3,0.2-0.6
					c0-0.3-0.1-0.5-0.3-0.7C6.7,6.9,6.6,6.8,6.4,6.8C6.2,6.8,6,6.7,5.8,6.7H4.3c-0.3,0-0.5,0-0.9,0c-0.2,0-0.5-0.1-0.7-0.2
					C2.5,6.4,2.3,6.3,2.2,6.1C1.9,6,1.8,5.8,1.7,5.6S1.5,5.1,1.5,4.9C1.4,4.6,1.4,4.4,1.4,4.2c0-0.4,0.1-0.7,0.2-1.2s0.3-0.7,0.6-1
					c0.2-0.1,0.3-0.3,0.5-0.3C3,1.6,3.2,1.6,3.4,1.5c0.2,0,0.4-0.1,0.6-0.1c0.2,0,0.4,0,0.6,0h4V3H5C4.8,3,4.6,3,4.5,3
					C4.3,3,4.2,3,4,3.1C3.8,3.2,3.6,3.3,3.5,3.4C3.4,3.6,3.3,3.9,3.3,4.2c0,0.2,0,0.4,0.1,0.6c0.1,0,0.3,0.1,0.4,0.2
					C4,5.1,4.2,5.1,4.4,5.1c0.2,0,0.3,0,0.5,0h1.3c0.3,0,0.6,0,1,0s0.6,0.1,1,0.3C8.2,5.7,8.4,5.8,8.5,6c0.1,0.1,0.2,0.3,0.3,0.5
					C9,6.7,9.1,6.9,9.1,7.3c0,0.2,0.1,0.4,0.1,0.7C9.2,8.2,9.1,8.5,9.1,8.9L9.1,8.9z"/>
			</g>
			<g>
				<polygon id="SVGID_2_" points="14.3,6 17.6,10.7 15.2,10.7 12.3,6 15.4,1.5 17.7,1.5 				"/>
			</g>
			<g>
				<polygon id="SVGID_3_" points="10.5,1.5 12.2,1.5 12.2,10.7 10.5,10.7 				"/>
			</g>
			<g>
				<polygon id="SVGID_4_" points="22.6,6.7 22.6,10.7 20.8,10.7 20.8,6.6 17.8,1.5 19.8,1.5 21.7,5 23.8,1.5 25.8,1.5 				"/>
			</g>
			<g>
				<polygon id="SVGID_5_" points="31.6,10.7 28.3,3.9 28.3,10.7 26.6,10.7 26.6,1.5 28.9,1.5 32.2,8.3 32.2,1.5 33.9,1.5 
					33.9,10.7 				"/>
			</g>
			<g>
				<path id="SVGID_6_" d="M37.8,8.6c0.2,0.1,0.4,0.2,0.7,0.2C38.9,9,39.2,9,39.5,9h2.2v1.6h-2.2c-0.3,0-0.7,0-1.2-0.1
					c-0.4,0-0.7-0.1-1.2-0.2c-0.4-0.1-0.7-0.4-1-0.7c-0.2-0.3-0.4-0.6-0.6-1.1c-0.1-0.4-0.3-0.9-0.3-1.3c-0.1-0.4-0.1-0.9-0.1-1.3
					c0-0.4,0-0.7,0.1-1.2s0.2-0.7,0.3-1.2c0.1-0.3,0.3-0.6,0.5-1S36.6,2,37,1.8s0.5-0.3,1-0.3c0.3,0,0.6-0.1,1-0.1h3V3h-2.2
					c-0.2,0-0.4,0-0.7,0c-0.3,0-0.5,0.1-0.6,0.1c-0.4,0.2-0.6,0.4-0.7,0.6c-0.1,0.2-0.2,0.4-0.3,0.7c0,0.2-0.1,0.5-0.1,0.7h4.7v1.6
					h-4.7c0,0.4,0.1,0.7,0.2,1.1C37.5,8.2,37.6,8.4,37.8,8.6L37.8,8.6z"/>
			</g>
			<g>
				<polygon id="SVGID_7_" points="46.7,3.1 46.7,10.7 44.9,10.7 44.9,3.1 42.4,3.1 42.4,1.5 49.4,1.5 49.4,3.1 				"/>
			</g>
			<g>
				<g>
					<defs>
						<path id="SVGID_8_" d="M9.1,8.9C9,9.2,8.8,9.5,8.6,9.7C8.4,10,8.2,10.1,8,10.2c-0.2,0.2-0.4,0.2-0.6,0.3
							c-0.2,0-0.4,0.1-0.6,0.1c-0.2,0-0.5,0-0.7,0H1.8V9h3.7c0.2,0,0.3,0,0.5,0c0.2,0,0.3,0,0.5-0.1c0.2-0.1,0.3-0.2,0.4-0.3
							c0.1-0.1,0.2-0.3,0.2-0.6c0-0.3-0.1-0.5-0.3-0.7C6.7,6.9,6.6,6.8,6.4,6.8C6.2,6.8,6,6.7,5.8,6.7H4.3c-0.3,0-0.5,0-0.9,0
							c-0.2,0-0.5-0.1-0.7-0.2C2.5,6.4,2.3,6.3,2.2,6.1C1.9,6,1.8,5.8,1.7,5.6S1.5,5.1,1.5,4.9C1.4,4.6,1.4,4.4,1.4,4.2
							c0-0.4,0.1-0.7,0.2-1.2s0.3-0.7,0.6-1c0.2-0.1,0.3-0.3,0.5-0.3C3,1.6,3.2,1.6,3.4,1.5c0.2,0,0.4-0.1,0.6-0.1
							c0.2,0,0.4,0,0.6,0h4V3H5C4.8,3,4.6,3,4.5,3C4.3,3,4.2,3,4,3.1C3.8,3.2,3.6,3.3,3.5,3.4C3.4,3.6,3.3,3.9,3.3,4.2
							c0,0.2,0,0.4,0.1,0.6c0.1,0,0.3,0.1,0.4,0.2C4,5.1,4.2,5.1,4.4,5.1c0.2,0,0.3,0,0.5,0h1.3c0.3,0,0.6,0,1,0s0.6,0.1,1,0.3
							C8.2,5.7,8.4,5.8,8.5,6c0.1,0.1,0.2,0.3,0.3,0.5C9,6.7,9.1,6.9,9.1,7.3c0,0.2,0.1,0.4,0.1,0.7C9.2,8.2,9.1,8.5,9.1,8.9
							L9.1,8.9z"/>
					</defs>
					<clipPath id="SVGID_9_">
						<use xlink:href="#SVGID_8_"  style="overflow:visible;"/>
					</clipPath>
				</g>
			</g>
			<g>
				<g>
					<defs>
						<path id="SVGID_10_" d="M9.1,8.9C9,9.2,8.8,9.5,8.6,9.7C8.4,10,8.2,10.1,8,10.2c-0.2,0.2-0.4,0.2-0.6,0.3
							c-0.2,0-0.4,0.1-0.6,0.1c-0.2,0-0.5,0-0.7,0H1.8V9h3.7c0.2,0,0.3,0,0.5,0c0.2,0,0.3,0,0.5-0.1c0.2-0.1,0.3-0.2,0.4-0.3
							c0.1-0.1,0.2-0.3,0.2-0.6c0-0.3-0.1-0.5-0.3-0.7C6.7,6.9,6.6,6.8,6.4,6.8C6.2,6.8,6,6.7,5.8,6.7H4.3c-0.3,0-0.5,0-0.9,0
							c-0.2,0-0.5-0.1-0.7-0.2C2.5,6.4,2.3,6.3,2.2,6.1C1.9,6,1.8,5.8,1.7,5.6S1.5,5.1,1.5,4.9C1.4,4.6,1.4,4.4,1.4,4.2
							c0-0.4,0.1-0.7,0.2-1.2s0.3-0.7,0.6-1c0.2-0.1,0.3-0.3,0.5-0.3C3,1.6,3.2,1.6,3.4,1.5c0.2,0,0.4-0.1,0.6-0.1
							c0.2,0,0.4,0,0.6,0h4V3H5C4.8,3,4.6,3,4.5,3C4.3,3,4.2,3,4,3.1C3.8,3.2,3.6,3.3,3.5,3.4C3.4,3.6,3.3,3.9,3.3,4.2
							c0,0.2,0,0.4,0.1,0.6c0.1,0,0.3,0.1,0.4,0.2C4,5.1,4.2,5.1,4.4,5.1c0.2,0,0.3,0,0.5,0h1.3c0.3,0,0.6,0,1,0s0.6,0.1,1,0.3
							C8.2,5.7,8.4,5.8,8.5,6c0.1,0.1,0.2,0.3,0.3,0.5C9,6.7,9.1,6.9,9.1,7.3c0,0.2,0.1,0.4,0.1,0.7C9.2,8.2,9.1,8.5,9.1,8.9
							L9.1,8.9z"/>
					</defs>
					<clipPath id="SVGID_11_">
						<use xlink:href="#SVGID_10_"  style="overflow:visible;"/>
					</clipPath>
				</g>
				<g>
					<defs>
						<path id="SVGID_12_" d="M9.1,8.9C9,9.2,8.8,9.5,8.6,9.7C8.4,10,8.2,10.1,8,10.2c-0.2,0.2-0.4,0.2-0.6,0.3
							c-0.2,0-0.4,0.1-0.6,0.1c-0.2,0-0.5,0-0.7,0H1.8V9h3.7c0.2,0,0.3,0,0.5,0c0.2,0,0.3,0,0.5-0.1c0.2-0.1,0.3-0.2,0.4-0.3
							c0.1-0.1,0.2-0.3,0.2-0.6c0-0.3-0.1-0.5-0.3-0.7C6.7,6.9,6.6,6.8,6.4,6.8C6.2,6.8,6,6.7,5.8,6.7H4.3c-0.3,0-0.5,0-0.9,0
							c-0.2,0-0.5-0.1-0.7-0.2C2.5,6.4,2.3,6.3,2.2,6.1C1.9,6,1.8,5.8,1.7,5.6S1.5,5.1,1.5,4.9C1.4,4.6,1.4,4.4,1.4,4.2
							c0-0.4,0.1-0.7,0.2-1.2s0.3-0.7,0.6-1c0.2-0.1,0.3-0.3,0.5-0.3C3,1.6,3.2,1.6,3.4,1.5c0.2,0,0.4-0.1,0.6-0.1
							c0.2,0,0.4,0,0.6,0h4V3H5C4.8,3,4.6,3,4.5,3C4.3,3,4.2,3,4,3.1C3.8,3.2,3.6,3.3,3.5,3.4C3.4,3.6,3.3,3.9,3.3,4.2
							c0,0.2,0,0.4,0.1,0.6c0.1,0,0.3,0.1,0.4,0.2C4,5.1,4.2,5.1,4.4,5.1c0.2,0,0.3,0,0.5,0h1.3c0.3,0,0.6,0,1,0s0.6,0.1,1,0.3
							C8.2,5.7,8.4,5.8,8.5,6c0.1,0.1,0.2,0.3,0.3,0.5C9,6.7,9.1,6.9,9.1,7.3c0,0.2,0.1,0.4,0.1,0.7C9.2,8.2,9.1,8.5,9.1,8.9
							L9.1,8.9z"/>
					</defs>
					<defs>
						<polygon id="SVGID_13_" points="14.3,6 17.6,10.7 15.2,10.7 12.3,6 15.4,1.5 17.7,1.5 						"/>
					</defs>
					<clipPath id="SVGID_14_">
						<use xlink:href="#SVGID_12_"  style="overflow:visible;"/>
					</clipPath>
					<clipPath id="SVGID_16_" class="st1">
						<use xlink:href="#SVGID_13_"  style="overflow:visible;"/>
					</clipPath>
				</g>
			</g>
			<g>
				<g>
					<defs>
						<path id="SVGID_18_" d="M9.1,8.9C9,9.2,8.8,9.5,8.6,9.7C8.4,10,8.2,10.1,8,10.2c-0.2,0.2-0.4,0.2-0.6,0.3
							c-0.2,0-0.4,0.1-0.6,0.1c-0.2,0-0.5,0-0.7,0H1.8V9h3.7c0.2,0,0.3,0,0.5,0c0.2,0,0.3,0,0.5-0.1c0.2-0.1,0.3-0.2,0.4-0.3
							c0.1-0.1,0.2-0.3,0.2-0.6c0-0.3-0.1-0.5-0.3-0.7C6.7,6.9,6.6,6.8,6.4,6.8C6.2,6.8,6,6.7,5.8,6.7H4.3c-0.3,0-0.5,0-0.9,0
							c-0.2,0-0.5-0.1-0.7-0.2C2.5,6.4,2.3,6.3,2.2,6.1C1.9,6,1.8,5.8,1.7,5.6S1.5,5.1,1.5,4.9C1.4,4.6,1.4,4.4,1.4,4.2
							c0-0.4,0.1-0.7,0.2-1.2s0.3-0.7,0.6-1c0.2-0.1,0.3-0.3,0.5-0.3C3,1.6,3.2,1.6,3.4,1.5c0.2,0,0.4-0.1,0.6-0.1
							c0.2,0,0.4,0,0.6,0h4V3H5C4.8,3,4.6,3,4.5,3C4.3,3,4.2,3,4,3.1C3.8,3.2,3.6,3.3,3.5,3.4C3.4,3.6,3.3,3.9,3.3,4.2
							c0,0.2,0,0.4,0.1,0.6c0.1,0,0.3,0.1,0.4,0.2C4,5.1,4.2,5.1,4.4,5.1c0.2,0,0.3,0,0.5,0h1.3c0.3,0,0.6,0,1,0s0.6,0.1,1,0.3
							C8.2,5.7,8.4,5.8,8.5,6c0.1,0.1,0.2,0.3,0.3,0.5C9,6.7,9.1,6.9,9.1,7.3c0,0.2,0.1,0.4,0.1,0.7C9.2,8.2,9.1,8.5,9.1,8.9
							L9.1,8.9z"/>
					</defs>
					<clipPath id="SVGID_19_">
						<use xlink:href="#SVGID_18_"  style="overflow:visible;"/>
					</clipPath>
				</g>
				<g>
					<defs>
						<path id="SVGID_20_" d="M9.1,8.9C9,9.2,8.8,9.5,8.6,9.7C8.4,10,8.2,10.1,8,10.2c-0.2,0.2-0.4,0.2-0.6,0.3
							c-0.2,0-0.4,0.1-0.6,0.1c-0.2,0-0.5,0-0.7,0H1.8V9h3.7c0.2,0,0.3,0,0.5,0c0.2,0,0.3,0,0.5-0.1c0.2-0.1,0.3-0.2,0.4-0.3
							c0.1-0.1,0.2-0.3,0.2-0.6c0-0.3-0.1-0.5-0.3-0.7C6.7,6.9,6.6,6.8,6.4,6.8C6.2,6.8,6,6.7,5.8,6.7H4.3c-0.3,0-0.5,0-0.9,0
							c-0.2,0-0.5-0.1-0.7-0.2C2.5,6.4,2.3,6.3,2.2,6.1C1.9,6,1.8,5.8,1.7,5.6S1.5,5.1,1.5,4.9C1.4,4.6,1.4,4.4,1.4,4.2
							c0-0.4,0.1-0.7,0.2-1.2s0.3-0.7,0.6-1c0.2-0.1,0.3-0.3,0.5-0.3C3,1.6,3.2,1.6,3.4,1.5c0.2,0,0.4-0.1,0.6-0.1
							c0.2,0,0.4,0,0.6,0h4V3H5C4.8,3,4.6,3,4.5,3C4.3,3,4.2,3,4,3.1C3.8,3.2,3.6,3.3,3.5,3.4C3.4,3.6,3.3,3.9,3.3,4.2
							c0,0.2,0,0.4,0.1,0.6c0.1,0,0.3,0.1,0.4,0.2C4,5.1,4.2,5.1,4.4,5.1c0.2,0,0.3,0,0.5,0h1.3c0.3,0,0.6,0,1,0s0.6,0.1,1,0.3
							C8.2,5.7,8.4,5.8,8.5,6c0.1,0.1,0.2,0.3,0.3,0.5C9,6.7,9.1,6.9,9.1,7.3c0,0.2,0.1,0.4,0.1,0.7C9.2,8.2,9.1,8.5,9.1,8.9
							L9.1,8.9z"/>
					</defs>
					<defs>
						<polygon id="SVGID_21_" points="14.3,6 17.6,10.7 15.2,10.7 12.3,6 15.4,1.5 17.7,1.5 						"/>
					</defs>
					<clipPath id="SVGID_22_">
						<use xlink:href="#SVGID_20_"  style="overflow:visible;"/>
					</clipPath>
					<clipPath id="SVGID_23_" class="st2">
						<use xlink:href="#SVGID_21_"  style="overflow:visible;"/>
					</clipPath>
				</g>
				<g>
					<defs>
						<path id="SVGID_24_" d="M9.1,8.9C9,9.2,8.8,9.5,8.6,9.7C8.4,10,8.2,10.1,8,10.2c-0.2,0.2-0.4,0.2-0.6,0.3
							c-0.2,0-0.4,0.1-0.6,0.1c-0.2,0-0.5,0-0.7,0H1.8V9h3.7c0.2,0,0.3,0,0.5,0c0.2,0,0.3,0,0.5-0.1c0.2-0.1,0.3-0.2,0.4-0.3
							c0.1-0.1,0.2-0.3,0.2-0.6c0-0.3-0.1-0.5-0.3-0.7C6.7,6.9,6.6,6.8,6.4,6.8C6.2,6.8,6,6.7,5.8,6.7H4.3c-0.3,0-0.5,0-0.9,0
							c-0.2,0-0.5-0.1-0.7-0.2C2.5,6.4,2.3,6.3,2.2,6.1C1.9,6,1.8,5.8,1.7,5.6S1.5,5.1,1.5,4.9C1.4,4.6,1.4,4.4,1.4,4.2
							c0-0.4,0.1-0.7,0.2-1.2s0.3-0.7,0.6-1c0.2-0.1,0.3-0.3,0.5-0.3C3,1.6,3.2,1.6,3.4,1.5c0.2,0,0.4-0.1,0.6-0.1
							c0.2,0,0.4,0,0.6,0h4V3H5C4.8,3,4.6,3,4.5,3C4.3,3,4.2,3,4,3.1C3.8,3.2,3.6,3.3,3.5,3.4C3.4,3.6,3.3,3.9,3.3,4.2
							c0,0.2,0,0.4,0.1,0.6c0.1,0,0.3,0.1,0.4,0.2C4,5.1,4.2,5.1,4.4,5.1c0.2,0,0.3,0,0.5,0h1.3c0.3,0,0.6,0,1,0s0.6,0.1,1,0.3
							C8.2,5.7,8.4,5.8,8.5,6c0.1,0.1,0.2,0.3,0.3,0.5C9,6.7,9.1,6.9,9.1,7.3c0,0.2,0.1,0.4,0.1,0.7C9.2,8.2,9.1,8.5,9.1,8.9
							L9.1,8.9z"/>
					</defs>
					<defs>
						<polygon id="SVGID_25_" points="14.3,6 17.6,10.7 15.2,10.7 12.3,6 15.4,1.5 17.7,1.5 						"/>
					</defs>
					<defs>
						<rect id="SVGID_26_" x="10.5" y="1.5" width="1.7" height="9.2"/>
					</defs>
					<clipPath id="SVGID_27_">
						<use xlink:href="#SVGID_24_"  style="overflow:visible;"/>
					</clipPath>
					<clipPath id="SVGID_28_" class="st3">
						<use xlink:href="#SVGID_25_"  style="overflow:visible;"/>
					</clipPath>
					<clipPath id="SVGID_29_" class="st4">
						<use xlink:href="#SVGID_26_"  style="overflow:visible;"/>
					</clipPath>
				</g>
			</g>
			<g>
				<g>
					<defs>
						<path id="SVGID_30_" d="M9.1,8.9C9,9.2,8.8,9.5,8.6,9.7C8.4,10,8.2,10.1,8,10.2c-0.2,0.2-0.4,0.2-0.6,0.3
							c-0.2,0-0.4,0.1-0.6,0.1c-0.2,0-0.5,0-0.7,0H1.8V9h3.7c0.2,0,0.3,0,0.5,0c0.2,0,0.3,0,0.5-0.1c0.2-0.1,0.3-0.2,0.4-0.3
							c0.1-0.1,0.2-0.3,0.2-0.6c0-0.3-0.1-0.5-0.3-0.7C6.7,6.9,6.6,6.8,6.4,6.8C6.2,6.8,6,6.7,5.8,6.7H4.3c-0.3,0-0.5,0-0.9,0
							c-0.2,0-0.5-0.1-0.7-0.2C2.5,6.4,2.3,6.3,2.2,6.1C1.9,6,1.8,5.8,1.7,5.6S1.5,5.1,1.5,4.9C1.4,4.6,1.4,4.4,1.4,4.2
							c0-0.4,0.1-0.7,0.2-1.2s0.3-0.7,0.6-1c0.2-0.1,0.3-0.3,0.5-0.3C3,1.6,3.2,1.6,3.4,1.5c0.2,0,0.4-0.1,0.6-0.1
							c0.2,0,0.4,0,0.6,0h4V3H5C4.8,3,4.6,3,4.5,3C4.3,3,4.2,3,4,3.1C3.8,3.2,3.6,3.3,3.5,3.4C3.4,3.6,3.3,3.9,3.3,4.2
							c0,0.2,0,0.4,0.1,0.6c0.1,0,0.3,0.1,0.4,0.2C4,5.1,4.2,5.1,4.4,5.1c0.2,0,0.3,0,0.5,0h1.3c0.3,0,0.6,0,1,0s0.6,0.1,1,0.3
							C8.2,5.7,8.4,5.8,8.5,6c0.1,0.1,0.2,0.3,0.3,0.5C9,6.7,9.1,6.9,9.1,7.3c0,0.2,0.1,0.4,0.1,0.7C9.2,8.2,9.1,8.5,9.1,8.9
							L9.1,8.9z"/>
					</defs>
					<clipPath id="SVGID_31_">
						<use xlink:href="#SVGID_30_"  style="overflow:visible;"/>
					</clipPath>
				</g>
				<g>
					<defs>
						<path id="SVGID_32_" d="M9.1,8.9C9,9.2,8.8,9.5,8.6,9.7C8.4,10,8.2,10.1,8,10.2c-0.2,0.2-0.4,0.2-0.6,0.3
							c-0.2,0-0.4,0.1-0.6,0.1c-0.2,0-0.5,0-0.7,0H1.8V9h3.7c0.2,0,0.3,0,0.5,0c0.2,0,0.3,0,0.5-0.1c0.2-0.1,0.3-0.2,0.4-0.3
							c0.1-0.1,0.2-0.3,0.2-0.6c0-0.3-0.1-0.5-0.3-0.7C6.7,6.9,6.6,6.8,6.4,6.8C6.2,6.8,6,6.7,5.8,6.7H4.3c-0.3,0-0.5,0-0.9,0
							c-0.2,0-0.5-0.1-0.7-0.2C2.5,6.4,2.3,6.3,2.2,6.1C1.9,6,1.8,5.8,1.7,5.6S1.5,5.1,1.5,4.9C1.4,4.6,1.4,4.4,1.4,4.2
							c0-0.4,0.1-0.7,0.2-1.2s0.3-0.7,0.6-1c0.2-0.1,0.3-0.3,0.5-0.3C3,1.6,3.2,1.6,3.4,1.5c0.2,0,0.4-0.1,0.6-0.1
							c0.2,0,0.4,0,0.6,0h4V3H5C4.8,3,4.6,3,4.5,3C4.3,3,4.2,3,4,3.1C3.8,3.2,3.6,3.3,3.5,3.4C3.4,3.6,3.3,3.9,3.3,4.2
							c0,0.2,0,0.4,0.1,0.6c0.1,0,0.3,0.1,0.4,0.2C4,5.1,4.2,5.1,4.4,5.1c0.2,0,0.3,0,0.5,0h1.3c0.3,0,0.6,0,1,0s0.6,0.1,1,0.3
							C8.2,5.7,8.4,5.8,8.5,6c0.1,0.1,0.2,0.3,0.3,0.5C9,6.7,9.1,6.9,9.1,7.3c0,0.2,0.1,0.4,0.1,0.7C9.2,8.2,9.1,8.5,9.1,8.9
							L9.1,8.9z"/>
					</defs>
					<defs>
						<polygon id="SVGID_33_" points="14.3,6 17.6,10.7 15.2,10.7 12.3,6 15.4,1.5 17.7,1.5 						"/>
					</defs>
					<clipPath id="SVGID_34_">
						<use xlink:href="#SVGID_32_"  style="overflow:visible;"/>
					</clipPath>
					<clipPath id="SVGID_35_" class="st5">
						<use xlink:href="#SVGID_33_"  style="overflow:visible;"/>
					</clipPath>
				</g>
				<g>
					<defs>
						<path id="SVGID_36_" d="M9.1,8.9C9,9.2,8.8,9.5,8.6,9.7C8.4,10,8.2,10.1,8,10.2c-0.2,0.2-0.4,0.2-0.6,0.3
							c-0.2,0-0.4,0.1-0.6,0.1c-0.2,0-0.5,0-0.7,0H1.8V9h3.7c0.2,0,0.3,0,0.5,0c0.2,0,0.3,0,0.5-0.1c0.2-0.1,0.3-0.2,0.4-0.3
							c0.1-0.1,0.2-0.3,0.2-0.6c0-0.3-0.1-0.5-0.3-0.7C6.7,6.9,6.6,6.8,6.4,6.8C6.2,6.8,6,6.7,5.8,6.7H4.3c-0.3,0-0.5,0-0.9,0
							c-0.2,0-0.5-0.1-0.7-0.2C2.5,6.4,2.3,6.3,2.2,6.1C1.9,6,1.8,5.8,1.7,5.6S1.5,5.1,1.5,4.9C1.4,4.6,1.4,4.4,1.4,4.2
							c0-0.4,0.1-0.7,0.2-1.2s0.3-0.7,0.6-1c0.2-0.1,0.3-0.3,0.5-0.3C3,1.6,3.2,1.6,3.4,1.5c0.2,0,0.4-0.1,0.6-0.1
							c0.2,0,0.4,0,0.6,0h4V3H5C4.8,3,4.6,3,4.5,3C4.3,3,4.2,3,4,3.1C3.8,3.2,3.6,3.3,3.5,3.4C3.4,3.6,3.3,3.9,3.3,4.2
							c0,0.2,0,0.4,0.1,0.6c0.1,0,0.3,0.1,0.4,0.2C4,5.1,4.2,5.1,4.4,5.1c0.2,0,0.3,0,0.5,0h1.3c0.3,0,0.6,0,1,0s0.6,0.1,1,0.3
							C8.2,5.7,8.4,5.8,8.5,6c0.1,0.1,0.2,0.3,0.3,0.5C9,6.7,9.1,6.9,9.1,7.3c0,0.2,0.1,0.4,0.1,0.7C9.2,8.2,9.1,8.5,9.1,8.9
							L9.1,8.9z"/>
					</defs>
					<defs>
						<polygon id="SVGID_37_" points="14.3,6 17.6,10.7 15.2,10.7 12.3,6 15.4,1.5 17.7,1.5 						"/>
					</defs>
					<defs>
						<rect id="SVGID_38_" x="10.5" y="1.5" width="1.7" height="9.2"/>
					</defs>
					<clipPath id="SVGID_39_">
						<use xlink:href="#SVGID_36_"  style="overflow:visible;"/>
					</clipPath>
					<clipPath id="SVGID_40_" class="st6">
						<use xlink:href="#SVGID_37_"  style="overflow:visible;"/>
					</clipPath>
					<clipPath id="SVGID_41_" class="st7">
						<use xlink:href="#SVGID_38_"  style="overflow:visible;"/>
					</clipPath>
				</g>
				<g>
					<defs>
						<path id="SVGID_42_" d="M9.1,8.9C9,9.2,8.8,9.5,8.6,9.7C8.4,10,8.2,10.1,8,10.2c-0.2,0.2-0.4,0.2-0.6,0.3
							c-0.2,0-0.4,0.1-0.6,0.1c-0.2,0-0.5,0-0.7,0H1.8V9h3.7c0.2,0,0.3,0,0.5,0c0.2,0,0.3,0,0.5-0.1c0.2-0.1,0.3-0.2,0.4-0.3
							c0.1-0.1,0.2-0.3,0.2-0.6c0-0.3-0.1-0.5-0.3-0.7C6.7,6.9,6.6,6.8,6.4,6.8C6.2,6.8,6,6.7,5.8,6.7H4.3c-0.3,0-0.5,0-0.9,0
							c-0.2,0-0.5-0.1-0.7-0.2C2.5,6.4,2.3,6.3,2.2,6.1C1.9,6,1.8,5.8,1.7,5.6S1.5,5.1,1.5,4.9C1.4,4.6,1.4,4.4,1.4,4.2
							c0-0.4,0.1-0.7,0.2-1.2s0.3-0.7,0.6-1c0.2-0.1,0.3-0.3,0.5-0.3C3,1.6,3.2,1.6,3.4,1.5c0.2,0,0.4-0.1,0.6-0.1
							c0.2,0,0.4,0,0.6,0h4V3H5C4.8,3,4.6,3,4.5,3C4.3,3,4.2,3,4,3.1C3.8,3.2,3.6,3.3,3.5,3.4C3.4,3.6,3.3,3.9,3.3,4.2
							c0,0.2,0,0.4,0.1,0.6c0.1,0,0.3,0.1,0.4,0.2C4,5.1,4.2,5.1,4.4,5.1c0.2,0,0.3,0,0.5,0h1.3c0.3,0,0.6,0,1,0s0.6,0.1,1,0.3
							C8.2,5.7,8.4,5.8,8.5,6c0.1,0.1,0.2,0.3,0.3,0.5C9,6.7,9.1,6.9,9.1,7.3c0,0.2,0.1,0.4,0.1,0.7C9.2,8.2,9.1,8.5,9.1,8.9
							L9.1,8.9z"/>
					</defs>
					<defs>
						<polygon id="SVGID_43_" points="14.3,6 17.6,10.7 15.2,10.7 12.3,6 15.4,1.5 17.7,1.5 						"/>
					</defs>
					<defs>
						<rect id="SVGID_44_" x="10.5" y="1.5" width="1.7" height="9.2"/>
					</defs>
					<defs>
						<polygon id="SVGID_45_" points="22.6,6.7 22.6,10.7 20.8,10.7 20.8,6.6 17.8,1.5 19.8,1.5 21.7,5 23.8,1.5 25.8,1.5 						"/>
					</defs>
					<clipPath id="SVGID_46_">
						<use xlink:href="#SVGID_42_"  style="overflow:visible;"/>
					</clipPath>
					<clipPath id="SVGID_47_" class="st8">
						<use xlink:href="#SVGID_43_"  style="overflow:visible;"/>
					</clipPath>
					<clipPath id="SVGID_48_" class="st9">
						<use xlink:href="#SVGID_44_"  style="overflow:visible;"/>
					</clipPath>
					<clipPath id="SVGID_49_" class="st10">
						<use xlink:href="#SVGID_45_"  style="overflow:visible;"/>
					</clipPath>
				</g>
			</g>
			<g>
				<g>
					<defs>
						<path id="SVGID_50_" d="M9.1,8.9C9,9.2,8.8,9.5,8.6,9.7C8.4,10,8.2,10.1,8,10.2c-0.2,0.2-0.4,0.2-0.6,0.3
							c-0.2,0-0.4,0.1-0.6,0.1c-0.2,0-0.5,0-0.7,0H1.8V9h3.7c0.2,0,0.3,0,0.5,0c0.2,0,0.3,0,0.5-0.1c0.2-0.1,0.3-0.2,0.4-0.3
							c0.1-0.1,0.2-0.3,0.2-0.6c0-0.3-0.1-0.5-0.3-0.7C6.7,6.9,6.6,6.8,6.4,6.8C6.2,6.8,6,6.7,5.8,6.7H4.3c-0.3,0-0.5,0-0.9,0
							c-0.2,0-0.5-0.1-0.7-0.2C2.5,6.4,2.3,6.3,2.2,6.1C1.9,6,1.8,5.8,1.7,5.6S1.5,5.1,1.5,4.9C1.4,4.6,1.4,4.4,1.4,4.2
							c0-0.4,0.1-0.7,0.2-1.2s0.3-0.7,0.6-1c0.2-0.1,0.3-0.3,0.5-0.3C3,1.6,3.2,1.6,3.4,1.5c0.2,0,0.4-0.1,0.6-0.1
							c0.2,0,0.4,0,0.6,0h4V3H5C4.8,3,4.6,3,4.5,3C4.3,3,4.2,3,4,3.1C3.8,3.2,3.6,3.3,3.5,3.4C3.4,3.6,3.3,3.9,3.3,4.2
							c0,0.2,0,0.4,0.1,0.6c0.1,0,0.3,0.1,0.4,0.2C4,5.1,4.2,5.1,4.4,5.1c0.2,0,0.3,0,0.5,0h1.3c0.3,0,0.6,0,1,0s0.6,0.1,1,0.3
							C8.2,5.7,8.4,5.8,8.5,6c0.1,0.1,0.2,0.3,0.3,0.5C9,6.7,9.1,6.9,9.1,7.3c0,0.2,0.1,0.4,0.1,0.7C9.2,8.2,9.1,8.5,9.1,8.9
							L9.1,8.9z"/>
					</defs>
					<clipPath id="SVGID_51_">
						<use xlink:href="#SVGID_50_"  style="overflow:visible;"/>
					</clipPath>
				</g>
				<g>
					<defs>
						<path id="SVGID_52_" d="M9.1,8.9C9,9.2,8.8,9.5,8.6,9.7C8.4,10,8.2,10.1,8,10.2c-0.2,0.2-0.4,0.2-0.6,0.3
							c-0.2,0-0.4,0.1-0.6,0.1c-0.2,0-0.5,0-0.7,0H1.8V9h3.7c0.2,0,0.3,0,0.5,0c0.2,0,0.3,0,0.5-0.1c0.2-0.1,0.3-0.2,0.4-0.3
							c0.1-0.1,0.2-0.3,0.2-0.6c0-0.3-0.1-0.5-0.3-0.7C6.7,6.9,6.6,6.8,6.4,6.8C6.2,6.8,6,6.7,5.8,6.7H4.3c-0.3,0-0.5,0-0.9,0
							c-0.2,0-0.5-0.1-0.7-0.2C2.5,6.4,2.3,6.3,2.2,6.1C1.9,6,1.8,5.8,1.7,5.6S1.5,5.1,1.5,4.9C1.4,4.6,1.4,4.4,1.4,4.2
							c0-0.4,0.1-0.7,0.2-1.2s0.3-0.7,0.6-1c0.2-0.1,0.3-0.3,0.5-0.3C3,1.6,3.2,1.6,3.4,1.5c0.2,0,0.4-0.1,0.6-0.1
							c0.2,0,0.4,0,0.6,0h4V3H5C4.8,3,4.6,3,4.5,3C4.3,3,4.2,3,4,3.1C3.8,3.2,3.6,3.3,3.5,3.4C3.4,3.6,3.3,3.9,3.3,4.2
							c0,0.2,0,0.4,0.1,0.6c0.1,0,0.3,0.1,0.4,0.2C4,5.1,4.2,5.1,4.4,5.1c0.2,0,0.3,0,0.5,0h1.3c0.3,0,0.6,0,1,0s0.6,0.1,1,0.3
							C8.2,5.7,8.4,5.8,8.5,6c0.1,0.1,0.2,0.3,0.3,0.5C9,6.7,9.1,6.9,9.1,7.3c0,0.2,0.1,0.4,0.1,0.7C9.2,8.2,9.1,8.5,9.1,8.9
							L9.1,8.9z"/>
					</defs>
					<defs>
						<polygon id="SVGID_53_" points="14.3,6 17.6,10.7 15.2,10.7 12.3,6 15.4,1.5 17.7,1.5 						"/>
					</defs>
					<clipPath id="SVGID_54_">
						<use xlink:href="#SVGID_52_"  style="overflow:visible;"/>
					</clipPath>
					<clipPath id="SVGID_55_" class="st11">
						<use xlink:href="#SVGID_53_"  style="overflow:visible;"/>
					</clipPath>
				</g>
				<g>
					<defs>
						<path id="SVGID_56_" d="M9.1,8.9C9,9.2,8.8,9.5,8.6,9.7C8.4,10,8.2,10.1,8,10.2c-0.2,0.2-0.4,0.2-0.6,0.3
							c-0.2,0-0.4,0.1-0.6,0.1c-0.2,0-0.5,0-0.7,0H1.8V9h3.7c0.2,0,0.3,0,0.5,0c0.2,0,0.3,0,0.5-0.1c0.2-0.1,0.3-0.2,0.4-0.3
							c0.1-0.1,0.2-0.3,0.2-0.6c0-0.3-0.1-0.5-0.3-0.7C6.7,6.9,6.6,6.8,6.4,6.8C6.2,6.8,6,6.7,5.8,6.7H4.3c-0.3,0-0.5,0-0.9,0
							c-0.2,0-0.5-0.1-0.7-0.2C2.5,6.4,2.3,6.3,2.2,6.1C1.9,6,1.8,5.8,1.7,5.6S1.5,5.1,1.5,4.9C1.4,4.6,1.4,4.4,1.4,4.2
							c0-0.4,0.1-0.7,0.2-1.2s0.3-0.7,0.6-1c0.2-0.1,0.3-0.3,0.5-0.3C3,1.6,3.2,1.6,3.4,1.5c0.2,0,0.4-0.1,0.6-0.1
							c0.2,0,0.4,0,0.6,0h4V3H5C4.8,3,4.6,3,4.5,3C4.3,3,4.2,3,4,3.1C3.8,3.2,3.6,3.3,3.5,3.4C3.4,3.6,3.3,3.9,3.3,4.2
							c0,0.2,0,0.4,0.1,0.6c0.1,0,0.3,0.1,0.4,0.2C4,5.1,4.2,5.1,4.4,5.1c0.2,0,0.3,0,0.5,0h1.3c0.3,0,0.6,0,1,0s0.6,0.1,1,0.3
							C8.2,5.7,8.4,5.8,8.5,6c0.1,0.1,0.2,0.3,0.3,0.5C9,6.7,9.1,6.9,9.1,7.3c0,0.2,0.1,0.4,0.1,0.7C9.2,8.2,9.1,8.5,9.1,8.9
							L9.1,8.9z"/>
					</defs>
					<defs>
						<polygon id="SVGID_57_" points="14.3,6 17.6,10.7 15.2,10.7 12.3,6 15.4,1.5 17.7,1.5 						"/>
					</defs>
					<defs>
						<rect id="SVGID_58_" x="10.5" y="1.5" width="1.7" height="9.2"/>
					</defs>
					<clipPath id="SVGID_59_">
						<use xlink:href="#SVGID_56_"  style="overflow:visible;"/>
					</clipPath>
					<clipPath id="SVGID_60_" class="st12">
						<use xlink:href="#SVGID_57_"  style="overflow:visible;"/>
					</clipPath>
					<clipPath id="SVGID_61_" class="st13">
						<use xlink:href="#SVGID_58_"  style="overflow:visible;"/>
					</clipPath>
				</g>
				<g>
					<defs>
						<path id="SVGID_62_" d="M9.1,8.9C9,9.2,8.8,9.5,8.6,9.7C8.4,10,8.2,10.1,8,10.2c-0.2,0.2-0.4,0.2-0.6,0.3
							c-0.2,0-0.4,0.1-0.6,0.1c-0.2,0-0.5,0-0.7,0H1.8V9h3.7c0.2,0,0.3,0,0.5,0c0.2,0,0.3,0,0.5-0.1c0.2-0.1,0.3-0.2,0.4-0.3
							c0.1-0.1,0.2-0.3,0.2-0.6c0-0.3-0.1-0.5-0.3-0.7C6.7,6.9,6.6,6.8,6.4,6.8C6.2,6.8,6,6.7,5.8,6.7H4.3c-0.3,0-0.5,0-0.9,0
							c-0.2,0-0.5-0.1-0.7-0.2C2.5,6.4,2.3,6.3,2.2,6.1C1.9,6,1.8,5.8,1.7,5.6S1.5,5.1,1.5,4.9C1.4,4.6,1.4,4.4,1.4,4.2
							c0-0.4,0.1-0.7,0.2-1.2s0.3-0.7,0.6-1c0.2-0.1,0.3-0.3,0.5-0.3C3,1.6,3.2,1.6,3.4,1.5c0.2,0,0.4-0.1,0.6-0.1
							c0.2,0,0.4,0,0.6,0h4V3H5C4.8,3,4.6,3,4.5,3C4.3,3,4.2,3,4,3.1C3.8,3.2,3.6,3.3,3.5,3.4C3.4,3.6,3.3,3.9,3.3,4.2
							c0,0.2,0,0.4,0.1,0.6c0.1,0,0.3,0.1,0.4,0.2C4,5.1,4.2,5.1,4.4,5.1c0.2,0,0.3,0,0.5,0h1.3c0.3,0,0.6,0,1,0s0.6,0.1,1,0.3
							C8.2,5.7,8.4,5.8,8.5,6c0.1,0.1,0.2,0.3,0.3,0.5C9,6.7,9.1,6.9,9.1,7.3c0,0.2,0.1,0.4,0.1,0.7C9.2,8.2,9.1,8.5,9.1,8.9
							L9.1,8.9z"/>
					</defs>
					<defs>
						<polygon id="SVGID_63_" points="14.3,6 17.6,10.7 15.2,10.7 12.3,6 15.4,1.5 17.7,1.5 						"/>
					</defs>
					<defs>
						<rect id="SVGID_64_" x="10.5" y="1.5" width="1.7" height="9.2"/>
					</defs>
					<defs>
						<polygon id="SVGID_65_" points="22.6,6.7 22.6,10.7 20.8,10.7 20.8,6.6 17.8,1.5 19.8,1.5 21.7,5 23.8,1.5 25.8,1.5 						"/>
					</defs>
					<clipPath id="SVGID_66_">
						<use xlink:href="#SVGID_62_"  style="overflow:visible;"/>
					</clipPath>
					<clipPath id="SVGID_67_" class="st14">
						<use xlink:href="#SVGID_63_"  style="overflow:visible;"/>
					</clipPath>
					<clipPath id="SVGID_68_" class="st15">
						<use xlink:href="#SVGID_64_"  style="overflow:visible;"/>
					</clipPath>
					<clipPath id="SVGID_69_" class="st16">
						<use xlink:href="#SVGID_65_"  style="overflow:visible;"/>
					</clipPath>
				</g>
				<g>
					<defs>
						<path id="SVGID_70_" d="M9.1,8.9C9,9.2,8.8,9.5,8.6,9.7C8.4,10,8.2,10.1,8,10.2c-0.2,0.2-0.4,0.2-0.6,0.3
							c-0.2,0-0.4,0.1-0.6,0.1c-0.2,0-0.5,0-0.7,0H1.8V9h3.7c0.2,0,0.3,0,0.5,0c0.2,0,0.3,0,0.5-0.1c0.2-0.1,0.3-0.2,0.4-0.3
							c0.1-0.1,0.2-0.3,0.2-0.6c0-0.3-0.1-0.5-0.3-0.7C6.7,6.9,6.6,6.8,6.4,6.8C6.2,6.8,6,6.7,5.8,6.7H4.3c-0.3,0-0.5,0-0.9,0
							c-0.2,0-0.5-0.1-0.7-0.2C2.5,6.4,2.3,6.3,2.2,6.1C1.9,6,1.8,5.8,1.7,5.6S1.5,5.1,1.5,4.9C1.4,4.6,1.4,4.4,1.4,4.2
							c0-0.4,0.1-0.7,0.2-1.2s0.3-0.7,0.6-1c0.2-0.1,0.3-0.3,0.5-0.3C3,1.6,3.2,1.6,3.4,1.5c0.2,0,0.4-0.1,0.6-0.1
							c0.2,0,0.4,0,0.6,0h4V3H5C4.8,3,4.6,3,4.5,3C4.3,3,4.2,3,4,3.1C3.8,3.2,3.6,3.3,3.5,3.4C3.4,3.6,3.3,3.9,3.3,4.2
							c0,0.2,0,0.4,0.1,0.6c0.1,0,0.3,0.1,0.4,0.2C4,5.1,4.2,5.1,4.4,5.1c0.2,0,0.3,0,0.5,0h1.3c0.3,0,0.6,0,1,0s0.6,0.1,1,0.3
							C8.2,5.7,8.4,5.8,8.5,6c0.1,0.1,0.2,0.3,0.3,0.5C9,6.7,9.1,6.9,9.1,7.3c0,0.2,0.1,0.4,0.1,0.7C9.2,8.2,9.1,8.5,9.1,8.9
							L9.1,8.9z"/>
					</defs>
					<defs>
						<polygon id="SVGID_71_" points="14.3,6 17.6,10.7 15.2,10.7 12.3,6 15.4,1.5 17.7,1.5 						"/>
					</defs>
					<defs>
						<rect id="SVGID_72_" x="10.5" y="1.5" width="1.7" height="9.2"/>
					</defs>
					<defs>
						<polygon id="SVGID_73_" points="22.6,6.7 22.6,10.7 20.8,10.7 20.8,6.6 17.8,1.5 19.8,1.5 21.7,5 23.8,1.5 25.8,1.5 						"/>
					</defs>
					<defs>
						<polygon id="SVGID_74_" points="31.6,10.7 28.3,3.9 28.3,10.7 26.6,10.7 26.6,1.5 28.9,1.5 32.2,8.3 32.2,1.5 33.9,1.5 
							33.9,10.7 						"/>
					</defs>
					<clipPath id="SVGID_75_">
						<use xlink:href="#SVGID_70_"  style="overflow:visible;"/>
					</clipPath>
					<clipPath id="SVGID_76_" class="st17">
						<use xlink:href="#SVGID_71_"  style="overflow:visible;"/>
					</clipPath>
					<clipPath id="SVGID_77_" class="st18">
						<use xlink:href="#SVGID_72_"  style="overflow:visible;"/>
					</clipPath>
					<clipPath id="SVGID_78_" class="st19">
						<use xlink:href="#SVGID_73_"  style="overflow:visible;"/>
					</clipPath>
					<clipPath id="SVGID_79_" class="st20">
						<use xlink:href="#SVGID_74_"  style="overflow:visible;"/>
					</clipPath>
				</g>
			</g>
		</g>
		<polygon class="st21" points="57.1,3.1 57.1,10.7 55.3,10.7 55.3,3.1 52.7,3.1 52.7,1.5 59.7,1.5 59.7,3.1 		"/>
		<path class="st21" d="M62.9,8.6c0.2,0.1,0.4,0.2,0.7,0.2C64,9,64.3,9,64.6,9h2.2v1.6h-2.2c-0.3,0-0.7,0-1.2-0.1
			c-0.4,0-0.7-0.1-1.2-0.2c-0.4-0.1-0.7-0.4-1-0.7c-0.2-0.3-0.4-0.6-0.6-1.1c-0.1-0.4-0.3-0.9-0.3-1.3c-0.1-0.4-0.1-0.9-0.1-1.3
			c0-0.4,0-0.7,0.1-1.2s0.2-0.7,0.3-1.2c0.1-0.3,0.3-0.6,0.5-1s0.5-0.5,0.9-0.7s0.6-0.3,1-0.3c0.3,0,0.6-0.1,1-0.1h3V3h-2.2
			c-0.2,0-0.4,0-0.7,0s-0.5,0.1-0.6,0.1c-0.2,0.1-0.4,0.3-0.6,0.5c-0.1,0.2-0.2,0.4-0.3,0.7c0,0.2-0.1,0.5-0.1,0.7H67v1.6h-4.7
			c0,0.4,0.1,0.7,0.2,1.1C62.6,8.2,62.7,8.4,62.9,8.6L62.9,8.6z"/>
		<path class="st21" d="M69.8,7.1c0,0.2,0.1,0.4,0.1,0.5c0,0.2,0.1,0.3,0.2,0.5c0.1,0.2,0.2,0.3,0.3,0.4s0.3,0.2,0.4,0.3
			C71.1,9,71.2,9,71.4,9s0.3,0,0.5,0h2.6v1.6h-2.9c-0.2,0-0.3,0-0.4,0s-0.3,0-0.4,0s-0.3,0-0.4-0.1c-0.1,0-0.3-0.1-0.4-0.1
			c-0.4-0.1-0.7-0.4-1.1-0.6c-0.2-0.3-0.4-0.6-0.6-1.1c-0.2-0.4-0.3-0.9-0.3-1.3c-0.1-0.4-0.1-0.9-0.1-1.3c0-0.6,0.1-1.3,0.2-1.9
			c0.1-0.6,0.4-1.3,0.9-1.7c0.2-0.2,0.4-0.3,0.6-0.5c0.2-0.1,0.4-0.2,0.7-0.3c0.2-0.1,0.5-0.1,0.7-0.1s0.5,0,0.7,0h2.8v1.6H72
			c-0.4,0-0.7,0.1-1.1,0.2s-0.5,0.3-0.6,0.5c-0.2,0.2-0.3,0.5-0.3,0.9c-0.1,0.3-0.1,0.7-0.1,1.2c0,0.2,0,0.3,0,0.5
			C69.7,6.6,69.7,6.8,69.8,7.1L69.8,7.1z"/>
		<polygon class="st21" points="80.6,10.7 80.6,6.8 77.4,6.8 77.4,10.7 75.7,10.7 75.7,1.5 77.4,1.5 77.4,5.2 80.6,5.2 80.6,1.5 
			82.4,1.5 82.4,10.7 		"/>
		<polygon class="st21" points="89.1,10.7 85.7,3.9 85.7,10.7 84.1,10.7 84.1,1.5 86.3,1.5 89.6,8.3 89.6,1.5 91.2,1.5 91.2,10.7 		
			"/>
		<path class="st21" d="M99.6,2.6c-0.6-0.7-1.7-1.2-3.1-1.2s-2.4,0.4-3.1,1.2c-0.6,0.7-1,1.9-1,3.5c0,0.3,0,0.6,0.1,1.1
			c0,0.3,0.1,0.6,0.2,1c0.1,0.3,0.2,0.6,0.4,1c0.2,0.3,0.4,0.5,0.6,0.7c0.1,0.1,0.3,0.3,0.5,0.4s0.4,0.2,0.7,0.3
			c0.2,0.1,0.5,0.1,0.7,0.1s0.5,0,0.7,0c1.4,0,2.3-0.4,3-1.2c0.6-0.7,1-1.9,1-3.4S100.3,3.4,99.6,2.6z M98.6,7.2
			c-0.1,0.4-0.2,0.7-0.3,1c-0.1,0.3-0.3,0.5-0.6,0.6C97.3,9,97,9,96.5,9s-0.9-0.1-1.1-0.2c-0.3-0.2-0.5-0.4-0.6-0.6
			c-0.1-0.2-0.3-0.6-0.3-1c-0.1-0.4-0.1-0.7-0.1-1.2s0-0.9,0.1-1.2c0.1-0.4,0.2-0.7,0.3-1c0.1-0.3,0.4-0.5,0.6-0.6
			C95.7,3.1,96.1,3,96.5,3s0.7,0.1,1.1,0.2c0.2,0.1,0.5,0.3,0.6,0.6c0.2,0.3,0.3,0.6,0.3,1c0.1,0.3,0.1,0.7,0.1,1.2
			C98.7,6.4,98.7,6.8,98.6,7.2z"/>
		<path class="st21" d="M104.9,10.7c-0.2,0-0.5,0-0.7,0c-0.2,0-0.4-0.1-0.6-0.1c-0.2-0.1-0.4-0.2-0.6-0.3c-0.2-0.3-0.4-0.4-0.5-0.6
			c-0.1-0.2-0.2-0.4-0.3-0.6c-0.1-0.2-0.1-0.5-0.2-0.7c0-0.2-0.1-0.5-0.1-0.7s0-0.5,0-0.7V1.5h1.7v5.1c0,0.1,0,0.2,0,0.3
			c0,0.1,0,0.2,0,0.3c0,0.2,0,0.5,0.1,0.7c0,0.2,0.1,0.4,0.3,0.6c0.1,0.1,0.2,0.2,0.4,0.2c0.1,0,0.3,0.1,0.4,0.1c0.2,0,0.3,0,0.5,0
			c0.2,0,0.3,0,0.4,0h1.7v1.6L104.9,10.7L104.9,10.7z"/>
		<path class="st21" d="M114.9,2.6c-0.6-0.9-1.7-1.2-3.1-1.2s-2.4,0.4-3.1,1.2c-0.6,0.7-1,1.9-1,3.5c0,0.3,0,0.6,0.1,1.1
			c0,0.3,0.1,0.6,0.2,1s0.2,0.6,0.4,1c0.2,0.3,0.4,0.5,0.6,0.7c0.2,0.2,0.4,0.3,0.6,0.4c0.2,0.1,0.4,0.2,0.7,0.3
			c0.2,0.1,0.5,0.1,0.7,0.1c0.2,0,0.5,0,0.7,0c1.4,0,2.3-0.4,3-1.2s1-1.9,1-3.4C115.9,4.6,115.6,3.4,114.9,2.6z M113.9,7.2
			c-0.1,0.4-0.2,0.7-0.3,1c-0.1,0.3-0.3,0.5-0.6,0.6C112.6,9,112.3,9,111.9,9s-0.9-0.1-1.1-0.2c-0.3-0.2-0.5-0.4-0.6-0.6
			c-0.2-0.3-0.3-0.6-0.3-1c-0.1-0.4-0.1-0.7-0.1-1.2s0-0.9,0.1-1.2c0.1-0.4,0.2-0.7,0.3-1c0.1-0.3,0.4-0.5,0.6-0.6
			c0.2-0.1,0.6-0.2,1.1-0.2s0.7,0.1,1.1,0.2c0.3,0.1,0.5,0.4,0.6,0.6c0.2,0.3,0.3,0.6,0.3,1C114,5.1,114,5.6,114,6
			C114,6.4,114,6.8,113.9,7.2z"/>
		<path class="st21" d="M120.2,6.8V5.2h4v5.4h-4c-0.6,0-1.2-0.1-1.6-0.3c-0.4-0.2-0.9-0.5-1.1-1c-0.3-0.4-0.4-0.9-0.6-1.4
			c-0.1-0.5-0.2-1.2-0.2-1.8c0-0.3,0-0.6,0.1-1.1c0-0.3,0.1-0.7,0.2-1.1c0.1-0.3,0.2-0.6,0.4-1s0.4-0.5,0.6-0.7
			c0.3-0.3,0.7-0.5,1.3-0.6c0.4-0.1,1-0.1,1.4-0.1h3.6v1.6h-3.4c-0.4,0-0.7,0.1-1.1,0.2s-0.5,0.3-0.6,0.5c-0.2,0.2-0.3,0.5-0.3,0.9
			c-0.1,0.3-0.1,0.7-0.1,1.2c0,0.2,0,0.3,0,0.5s0,0.4,0.1,0.6c0,0.2,0.1,0.4,0.1,0.5c0,0.2,0.1,0.3,0.2,0.5c0.1,0.2,0.2,0.3,0.3,0.4
			c0.1,0.1,0.3,0.2,0.4,0.2c0.2,0.1,0.3,0.1,0.5,0.1c0.2,0,0.3,0,0.5,0h1.6V6.8L120.2,6.8L120.2,6.8z"/>
		<polygon class="st21" points="125.7,10.7 125.7,1.5 127.5,1.5 127.5,10.7 		"/>
		<path class="st21" d="M131.4,8.6c0.2,0.1,0.4,0.2,0.7,0.3c0.3,0.1,0.6,0.1,1,0.1h2.2v1.6h-2.2c-0.3,0-0.7,0-1.2-0.1
			c-0.4,0-0.7-0.1-1.2-0.2c-0.4-0.1-0.7-0.4-1-0.7c-0.2-0.3-0.4-0.6-0.6-1.1c-0.1-0.4-0.3-0.9-0.3-1.3c-0.1-0.4-0.1-0.9-0.1-1.3
			s0-0.7,0.1-1.2s0.2-0.7,0.3-1.2c0.1-0.3,0.3-0.6,0.5-1c0.2-0.3,0.5-0.5,0.9-0.7c0.3-0.2,0.6-0.3,1-0.3c0.3,0,0.6-0.1,1-0.1h3v1.6
			h-2.2c-0.2,0-0.4,0-0.7,0c-0.3,0-0.5,0.1-0.6,0.1c-0.2,0.1-0.4,0.3-0.6,0.5c-0.1,0.2-0.2,0.4-0.3,0.7c0,0.2-0.1,0.5-0.1,0.7h4.7
			v1.6h-4.7c0,0.4,0.1,0.7,0.2,1.1C131,8.2,131.2,8.4,131.4,8.6L131.4,8.6z"/>
		<path class="st21" d="M143.9,8.9c-0.1,0.3-0.2,0.6-0.4,0.9c-0.2,0.2-0.3,0.4-0.5,0.5c-0.2,0.1-0.4,0.2-0.6,0.2s-0.4,0.1-0.7,0.1
			c-0.2,0-0.5,0-0.7,0h-4.1V9h3.7c0.2,0,0.3,0,0.5,0s0.3,0,0.5-0.1c0.2-0.1,0.3-0.2,0.4-0.3c0.1-0.1,0.2-0.3,0.2-0.6
			c0-0.3-0.1-0.5-0.3-0.7c-0.1-0.2-0.3-0.2-0.5-0.3c-0.2,0-0.4-0.1-0.6-0.1h-1.5c-0.2,0-0.5,0-0.7,0c-0.3,0-0.5-0.1-0.7-0.2
			c-0.2-0.1-0.4-0.2-0.5-0.4c-0.2-0.2-0.3-0.3-0.4-0.5s-0.2-0.4-0.2-0.6c-0.1-0.2-0.1-0.5-0.1-0.7c0-0.4,0.1-0.7,0.2-1.2
			s0.3-0.7,0.6-1c0.2-0.1,0.3-0.3,0.5-0.3c0.2-0.1,0.4-0.1,0.6-0.2c0.2,0,0.4-0.1,0.6-0.1c0.2,0,0.4,0,0.6,0h4V3H140
			c-0.2,0-0.4,0-0.5,0c-0.2,0-0.3,0-0.5,0.1c-0.2,0.1-0.3,0.1-0.4,0.3c-0.1,0.1-0.1,0.3-0.1,0.6c0,0.2,0,0.4,0.1,0.6
			c0.1,0.1,0.2,0.2,0.3,0.3c0.1,0.1,0.3,0.1,0.5,0.1c0.2,0,0.3,0,0.5,0h1.3c0.3,0,0.6,0,1,0s0.6,0.1,1,0.3c0.2,0.1,0.4,0.2,0.5,0.4
			c0.1,0.2,0.2,0.4,0.3,0.6c0.1,0.2,0.1,0.4,0.2,0.6c0,0.2,0.1,0.4,0.1,0.7C144,8.2,144,8.5,143.9,8.9L143.9,8.9z"/>
	</g>
	<g>
		<path d="M10.4,17.1v-3.7h0.8v3.7H10.4z"/>
		<path d="M14.6,16.1c0,0.3-0.1,0.6-0.4,0.8c-0.3,0.2-0.6,0.3-1.1,0.3c-0.4,0-0.8-0.1-1.1-0.2v-0.7c0.3,0.1,0.5,0.2,0.7,0.2
			s0.4,0.1,0.5,0.1c0.2,0,0.3,0,0.4-0.1s0.1-0.2,0.1-0.3c0-0.1,0-0.1-0.1-0.2c0-0.1-0.1-0.1-0.2-0.2s-0.3-0.1-0.5-0.2
			s-0.4-0.2-0.5-0.3c-0.1-0.1-0.2-0.2-0.3-0.3C12,14.9,12,14.7,12,14.5c0-0.3,0.1-0.6,0.4-0.8c0.2-0.2,0.6-0.3,1-0.3
			c0.2,0,0.4,0,0.6,0.1c0.2,0,0.4,0.1,0.6,0.2l-0.3,0.6c-0.2-0.1-0.4-0.1-0.5-0.2c-0.1,0-0.3,0-0.4,0c-0.2,0-0.3,0-0.4,0.1
			s-0.1,0.2-0.1,0.3c0,0.1,0,0.1,0.1,0.2c0,0.1,0.1,0.1,0.2,0.1s0.3,0.1,0.5,0.3c0.4,0.2,0.6,0.3,0.8,0.5
			C14.5,15.7,14.6,15.9,14.6,16.1z"/>
		<path d="M18.9,15.3c0,0.6-0.2,1.1-0.5,1.4s-0.8,0.5-1.4,0.5s-1.1-0.2-1.4-0.5s-0.5-0.8-0.5-1.4s0.2-1.1,0.5-1.4s0.8-0.5,1.4-0.5
			s1.1,0.2,1.4,0.5S18.9,14.7,18.9,15.3z M16,15.3c0,0.4,0.1,0.7,0.3,0.9c0.2,0.2,0.4,0.3,0.8,0.3c0.7,0,1-0.4,1-1.2
			c0-0.8-0.3-1.2-1-1.2c-0.3,0-0.6,0.1-0.8,0.3C16.1,14.6,16,14.9,16,15.3z"/>
		<path d="M23.6,15c0,0.7-0.2,1.3-0.5,1.6c-0.3,0.4-0.8,0.5-1.5,0.5c-0.2,0-0.4,0-0.5,0v-0.6c0.2,0,0.3,0.1,0.5,0.1
			c0.3,0,0.5,0,0.7-0.1s0.3-0.2,0.4-0.4c0.1-0.2,0.2-0.4,0.2-0.7l0,0c-0.1,0.2-0.2,0.3-0.4,0.3c-0.1,0.1-0.3,0.1-0.5,0.1
			c-0.3,0-0.6-0.1-0.8-0.3c-0.2-0.2-0.3-0.5-0.3-0.9s0.1-0.7,0.4-0.9c0.2-0.2,0.6-0.3,1-0.3c0.3,0,0.5,0.1,0.8,0.2
			c0.2,0.1,0.4,0.3,0.5,0.6C23.5,14.4,23.6,14.7,23.6,15z M22.2,14c-0.2,0-0.3,0.1-0.4,0.2s-0.1,0.3-0.1,0.5s0,0.3,0.1,0.4
			s0.2,0.2,0.4,0.2c0.2,0,0.3-0.1,0.4-0.2s0.2-0.2,0.2-0.4c0-0.2-0.1-0.4-0.2-0.5S22.3,14,22.2,14z"/>
		<path d="M26.7,15.3c0,0.6-0.1,1.1-0.3,1.4c-0.2,0.3-0.6,0.5-1,0.5c-0.5,0-0.8-0.2-1-0.5s-0.3-0.8-0.3-1.4c0-0.7,0.1-1.1,0.3-1.4
			c0.2-0.3,0.6-0.5,1-0.5c0.5,0,0.8,0.2,1,0.5S26.7,14.7,26.7,15.3z M24.8,15.3c0,0.5,0,0.8,0.1,1s0.2,0.3,0.4,0.3
			c0.2,0,0.3-0.1,0.4-0.3c0.1-0.2,0.1-0.5,0.1-1s0-0.8-0.1-1S25.5,14,25.3,14c-0.2,0-0.3,0.1-0.4,0.3S24.8,14.9,24.8,15.3z"/>
		<path d="M29.9,15.3c0,0.6-0.1,1.1-0.3,1.4c-0.2,0.3-0.6,0.5-1,0.5c-0.5,0-0.8-0.2-1-0.5c-0.2-0.3-0.3-0.8-0.3-1.4
			c0-0.7,0.1-1.1,0.3-1.4c0.2-0.3,0.6-0.5,1-0.5c0.5,0,0.8,0.2,1,0.5C29.8,14.2,29.9,14.7,29.9,15.3z M28,15.3c0,0.5,0,0.8,0.1,1
			s0.2,0.3,0.4,0.3c0.2,0,0.3-0.1,0.4-0.3c0.1-0.2,0.1-0.5,0.1-1s0-0.8-0.1-1S28.7,14,28.5,14c-0.2,0-0.3,0.1-0.4,0.3
			C28,14.5,28,14.9,28,15.3z"/>
		<path d="M32.4,17.1h-0.8V15v-0.4v-0.4c-0.1,0.1-0.2,0.2-0.3,0.3l-0.5,0.3l-0.4-0.5l1.3-0.9h0.7V17.1z"/>
		<path d="M33.6,14.7c0-0.1,0-0.2,0.1-0.3c0.1-0.1,0.2-0.1,0.4-0.1c0.1,0,0.3,0,0.3,0.1c0.1,0.1,0.1,0.2,0.1,0.3
			c0,0.1,0,0.2-0.1,0.3c-0.1,0.1-0.2,0.1-0.3,0.1c-0.2,0-0.3,0-0.4-0.1C33.6,14.9,33.6,14.8,33.6,14.7z M33.6,16.8
			c0-0.1,0-0.2,0.1-0.3c0.1-0.1,0.2-0.1,0.4-0.1c0.1,0,0.3,0,0.3,0.1c0.1,0.1,0.1,0.2,0.1,0.3c0,0.1,0,0.2-0.1,0.3
			c-0.1,0.1-0.2,0.1-0.3,0.1c-0.2,0-0.3,0-0.4-0.1C33.6,17,33.6,16.9,33.6,16.8z"/>
		<path d="M37.8,17.1H35v-0.5l1-0.9c0.3-0.3,0.5-0.5,0.6-0.6c0.1-0.1,0.2-0.2,0.2-0.3c0-0.1,0.1-0.2,0.1-0.3c0-0.1,0-0.3-0.1-0.3
			c-0.1-0.1-0.2-0.1-0.3-0.1c-0.2,0-0.3,0-0.4,0.1c-0.1,0.1-0.3,0.2-0.5,0.3L35.1,14c0.2-0.2,0.4-0.3,0.5-0.3
			c0.1-0.1,0.3-0.1,0.4-0.1c0.2,0,0.3-0.1,0.5-0.1c0.2,0,0.5,0,0.7,0.1s0.3,0.2,0.4,0.4c0.1,0.2,0.2,0.3,0.2,0.5s0,0.3-0.1,0.5
			c-0.1,0.1-0.2,0.3-0.3,0.5c-0.1,0.2-0.4,0.4-0.7,0.7l-0.5,0.4l0,0h1.7L37.8,17.1L37.8,17.1z"/>
		<path d="M40.9,15.3c0,0.6-0.1,1.1-0.3,1.4s-0.6,0.5-1,0.5c-0.5,0-0.8-0.2-1-0.5s-0.3-0.8-0.3-1.4c0-0.7,0.1-1.1,0.3-1.4
			s0.6-0.5,1-0.5c0.5,0,0.8,0.2,1,0.5S40.9,14.7,40.9,15.3z M39,15.3c0,0.5,0,0.8,0.1,1c0.1,0.2,0.2,0.3,0.4,0.3
			c0.2,0,0.3-0.1,0.4-0.3c0.1-0.2,0.1-0.5,0.1-1s0-0.8-0.1-1c-0.1-0.2-0.2-0.3-0.4-0.3c-0.2,0-0.3,0.1-0.4,0.3
			C39,14.5,39,14.9,39,15.3z"/>
		<path d="M43.4,17.1h-0.8V15v-0.4v-0.4c-0.1,0.1-0.2,0.2-0.3,0.3l-0.5,0.3l-0.4-0.5l1.3-0.9h0.7C43.4,13.4,43.4,17.1,43.4,17.1z"/>
		<path d="M45.9,14.8c0.4,0,0.7,0.1,0.9,0.3s0.3,0.5,0.3,0.8c0,0.4-0.1,0.7-0.4,1c-0.3,0.2-0.7,0.3-1.2,0.3c-0.4,0-0.8-0.1-1.1-0.2
			v-0.7c0.1,0.1,0.3,0.1,0.5,0.2c0.2,0,0.4,0.1,0.5,0.1c0.5,0,0.8-0.2,0.8-0.6c0-0.4-0.3-0.6-0.8-0.6c-0.1,0-0.2,0-0.3,0
			s-0.2,0-0.3,0.1l-0.3-0.2l0.1-1.9h2.1v0.7h-1.2l-0.1,0.7h0.1C45.6,14.8,45.8,14.8,45.9,14.8z"/>
		<path d="M48.7,16.6c-0.1,0.3-0.3,0.7-0.5,1.2h-0.6c0.1-0.4,0.2-0.9,0.3-1.3L48.7,16.6L48.7,16.6z"/>
		<path d="M51,17.1v-3.7h0.8v3.7H51z"/>
		<path d="M55.1,16.1c0,0.3-0.1,0.6-0.4,0.8c-0.3,0.2-0.6,0.3-1.1,0.3c-0.4,0-0.8-0.1-1.1-0.2v-0.7c0.3,0.1,0.5,0.2,0.7,0.2
			s0.4,0.1,0.5,0.1c0.2,0,0.3,0,0.4-0.1c0.1-0.1,0.1-0.2,0.1-0.3c0-0.1,0-0.1-0.1-0.2c0-0.1-0.1-0.1-0.2-0.2
			c-0.1-0.1-0.3-0.1-0.5-0.2s-0.4-0.2-0.5-0.3c-0.1-0.1-0.2-0.2-0.3-0.3c-0.1-0.1-0.1-0.3-0.1-0.5c0-0.3,0.1-0.6,0.4-0.8
			c0.2-0.2,0.6-0.3,1-0.3c0.2,0,0.4,0,0.6,0.1c0.2,0,0.4,0.1,0.6,0.2l-0.3,0.6c-0.2-0.1-0.4-0.1-0.5-0.2c-0.1,0-0.3,0-0.4,0
			c-0.2,0-0.3,0-0.4,0.1c-0.1,0.1-0.1,0.2-0.1,0.3c0,0.1,0,0.1,0.1,0.2c0,0.1,0.1,0.1,0.2,0.1c0.1,0,0.3,0.1,0.5,0.3
			c0.4,0.2,0.6,0.3,0.8,0.5C55.1,15.7,55.1,15.9,55.1,16.1z"/>
		<path d="M59.4,15.3c0,0.6-0.2,1.1-0.5,1.4s-0.8,0.5-1.4,0.5c-0.6,0-1.1-0.2-1.4-0.5s-0.5-0.8-0.5-1.4s0.2-1.1,0.5-1.4
			s0.8-0.5,1.4-0.5s1.1,0.2,1.4,0.5S59.4,14.7,59.4,15.3z M56.6,15.3c0,0.4,0.1,0.7,0.3,0.9c0.2,0.2,0.4,0.3,0.8,0.3
			c0.7,0,1-0.4,1-1.2c0-0.8-0.3-1.2-1-1.2c-0.3,0-0.6,0.1-0.8,0.3C56.6,14.6,56.6,14.9,56.6,15.3z"/>
		<path d="M64.2,17.1h-2.8v-0.5l1-0.9c0.3-0.3,0.5-0.5,0.6-0.6c0.1-0.1,0.2-0.2,0.2-0.3c0-0.1,0.1-0.2,0.1-0.3c0-0.1,0-0.3-0.1-0.3
			c-0.1-0.1-0.2-0.1-0.3-0.1c-0.2,0-0.3,0-0.4,0.1c-0.1,0.1-0.3,0.2-0.5,0.3L61.5,14c0.2-0.2,0.4-0.3,0.5-0.3
			c0.1-0.1,0.3-0.1,0.4-0.1c0.2,0,0.3-0.1,0.5-0.1s0.5,0,0.7,0.1s0.3,0.2,0.4,0.4c0.1,0.2,0.2,0.3,0.2,0.5s0,0.3-0.1,0.5
			c-0.1,0.1-0.2,0.3-0.3,0.5c-0.1,0.2-0.4,0.4-0.7,0.7l-0.5,0.4l0,0h1.7v0.5H64.2z"/>
		<path d="M65,17.1l1.5-3h-1.9v-0.7h2.8v0.5l-1.5,3.2H65z"/>
		<path d="M70.5,15.3c0,0.6-0.1,1.1-0.3,1.4s-0.6,0.5-1,0.5c-0.5,0-0.8-0.2-1-0.5c-0.2-0.3-0.3-0.8-0.3-1.4c0-0.7,0.1-1.1,0.3-1.4
			c0.2-0.3,0.6-0.5,1-0.5c0.5,0,0.8,0.2,1,0.5C70.3,14.2,70.5,14.7,70.5,15.3z M68.5,15.3c0,0.5,0,0.8,0.1,1s0.2,0.3,0.4,0.3
			c0.2,0,0.3-0.1,0.4-0.3c0.1-0.2,0.1-0.5,0.1-1s0-0.8-0.1-1C69.3,14.1,69.2,14,69,14c-0.2,0-0.3,0.1-0.4,0.3
			C68.6,14.5,68.5,14.9,68.5,15.3z"/>
		<path d="M73.6,15.3c0,0.6-0.1,1.1-0.3,1.4c-0.2,0.3-0.6,0.5-1,0.5c-0.5,0-0.8-0.2-1-0.5c-0.2-0.3-0.3-0.8-0.3-1.4
			c0-0.7,0.1-1.1,0.3-1.4c0.2-0.3,0.6-0.5,1-0.5c0.5,0,0.8,0.2,1,0.5C73.5,14.2,73.6,14.7,73.6,15.3z M71.7,15.3c0,0.5,0,0.8,0.1,1
			c0.1,0.2,0.2,0.3,0.4,0.3c0.2,0,0.3-0.1,0.4-0.3s0.1-0.5,0.1-1s0-0.8-0.1-1S72.4,14,72.2,14s-0.3,0.1-0.4,0.3
			C71.7,14.5,71.7,14.9,71.7,15.3z"/>
		<path d="M76.1,17.1h-0.8V15v-0.4v-0.4c-0.1,0.1-0.2,0.2-0.3,0.3l-0.5,0.3l-0.4-0.5l1.3-0.9h0.7V17.1z"/>
		<path d="M77.3,14.7c0-0.1,0-0.2,0.1-0.3c0.1-0.1,0.2-0.1,0.4-0.1c0.1,0,0.3,0,0.3,0.1c0.1,0.1,0.1,0.2,0.1,0.3
			c0,0.1,0,0.2-0.1,0.3c-0.1,0.1-0.2,0.1-0.3,0.1c-0.2,0-0.3,0-0.4-0.1C77.3,14.9,77.3,14.8,77.3,14.7z M77.3,16.8
			c0-0.1,0-0.2,0.1-0.3s0.2-0.1,0.4-0.1c0.1,0,0.3,0,0.3,0.1c0.1,0.1,0.1,0.2,0.1,0.3c0,0.1,0,0.2-0.1,0.3c-0.1,0.1-0.2,0.1-0.3,0.1
			c-0.2,0-0.3,0-0.4-0.1C77.3,17,77.3,16.9,77.3,16.8z"/>
		<path d="M81.5,17.1h-2.8v-0.5l1-0.9c0.3-0.3,0.5-0.5,0.6-0.6s0.2-0.2,0.2-0.3c0-0.1,0.1-0.2,0.1-0.3c0-0.1,0-0.3-0.1-0.3
			c-0.1-0.1-0.2-0.1-0.3-0.1c-0.2,0-0.3,0-0.4,0.1c-0.1,0.1-0.3,0.2-0.5,0.3L78.8,14c0.2-0.2,0.4-0.3,0.5-0.3
			c0.1-0.1,0.3-0.1,0.4-0.1c0.2,0,0.3-0.1,0.5-0.1c0.2,0,0.5,0,0.7,0.1c0.2,0.1,0.3,0.2,0.4,0.4c0.1,0.2,0.2,0.3,0.2,0.5
			s0,0.3-0.1,0.5s-0.2,0.3-0.3,0.5s-0.4,0.4-0.7,0.7l-0.5,0.4l0,0h1.7v0.5H81.5z"/>
		<path d="M84.7,15.3c0,0.6-0.1,1.1-0.3,1.4c-0.2,0.3-0.6,0.5-1,0.5c-0.5,0-0.8-0.2-1-0.5c-0.2-0.3-0.3-0.8-0.3-1.4
			c0-0.7,0.1-1.1,0.3-1.4c0.2-0.3,0.6-0.5,1-0.5c0.5,0,0.8,0.2,1,0.5C84.5,14.2,84.7,14.7,84.7,15.3z M82.7,15.3c0,0.5,0,0.8,0.1,1
			s0.2,0.3,0.4,0.3c0.2,0,0.3-0.1,0.4-0.3c0.1-0.2,0.1-0.5,0.1-1s0-0.8-0.1-1S83.4,14,83.2,14c-0.2,0-0.3,0.1-0.4,0.3
			C82.8,14.5,82.7,14.9,82.7,15.3z"/>
		<path d="M87.1,17.1h-0.8V15v-0.4v-0.4c-0.1,0.1-0.2,0.2-0.3,0.3l-0.5,0.3l-0.4-0.5l1.3-0.9h0.7V17.1z"/>
		<path d="M90.8,14.3c0,0.2-0.1,0.4-0.2,0.6s-0.4,0.3-0.6,0.3l0,0c0.3,0,0.6,0.1,0.7,0.3c0.2,0.1,0.2,0.3,0.2,0.6
			c0,0.4-0.1,0.6-0.4,0.8c-0.3,0.2-0.7,0.3-1.2,0.3c-0.4,0-0.8-0.1-1.1-0.2v-0.7c0.2,0.1,0.3,0.1,0.5,0.2c0.2,0,0.4,0.1,0.5,0.1
			c0.3,0,0.5,0,0.6-0.1s0.2-0.2,0.2-0.4c0-0.2-0.1-0.3-0.2-0.4c-0.1-0.1-0.4-0.1-0.7-0.1h-0.3V15h0.3c0.3,0,0.5,0,0.7-0.1
			c0.1-0.1,0.2-0.2,0.2-0.4c0-0.3-0.2-0.4-0.6-0.4c-0.1,0-0.3,0-0.4,0.1c-0.1,0-0.3,0.1-0.4,0.2l-0.4-0.5c0.4-0.2,0.8-0.4,1.3-0.4
			c0.4,0,0.7,0.1,1,0.2C90.7,13.8,90.8,14,90.8,14.3z"/>
		<path d="M94.8,14.1c-0.3,0-0.6,0.1-0.7,0.3c-0.2,0.2-0.3,0.5-0.3,0.9c0,0.8,0.3,1.2,1,1.2c0.3,0,0.6-0.1,1-0.2V17
			c-0.3,0.1-0.7,0.2-1.1,0.2c-0.6,0-1-0.2-1.3-0.5c-0.3-0.3-0.5-0.8-0.5-1.4c0-0.4,0.1-0.7,0.2-1s0.4-0.5,0.6-0.7s0.6-0.2,1-0.2
			s0.8,0.1,1.2,0.3l-0.3,0.6c-0.1-0.1-0.3-0.1-0.4-0.2C95.1,14.1,94.9,14.1,94.8,14.1z"/>
		<path d="M97.9,17.2c-0.5,0-0.9-0.1-1.1-0.4c-0.3-0.3-0.4-0.6-0.4-1.1c0-0.5,0.1-0.8,0.4-1.1c0.3-0.3,0.6-0.4,1-0.4s0.8,0.1,1,0.3
			c0.2,0.2,0.4,0.5,0.4,0.9v0.4h-1.9c0,0.2,0.1,0.4,0.2,0.5s0.3,0.2,0.5,0.2c0.2,0,0.4,0,0.5-0.1c0.2,0,0.3-0.1,0.5-0.2v0.6
			c-0.1,0.1-0.3,0.1-0.5,0.2C98.4,17.2,98.2,17.2,97.9,17.2z M97.8,14.8c-0.2,0-0.3,0.1-0.4,0.2c-0.1,0.1-0.2,0.3-0.2,0.4h1.2
			c0-0.2-0.1-0.3-0.2-0.4C98.1,14.9,98,14.8,97.8,14.8z"/>
		<path d="M101.5,14.3c0.1,0,0.2,0,0.3,0l-0.1,0.7c-0.1,0-0.1,0-0.2,0c-0.3,0-0.5,0.1-0.6,0.2s-0.2,0.3-0.2,0.5v1.4h-0.8v-2.8h0.6
			l0.1,0.5l0,0c0.1-0.2,0.2-0.3,0.4-0.4C101.1,14.3,101.3,14.3,101.5,14.3z"/>
		<path d="M103.6,16.6c0.1,0,0.3,0,0.5-0.1v0.6c-0.2,0.1-0.5,0.1-0.8,0.1c-0.3,0-0.6-0.1-0.7-0.2c-0.2-0.2-0.2-0.4-0.2-0.7v-1.4H102
			v-0.3l0.5-0.3l0.2-0.6h0.5v0.6h0.8v0.6h-0.8v1.4c0,0.1,0,0.2,0.1,0.2C103.4,16.6,103.5,16.6,103.6,16.6z"/>
		<path d="M104.7,13.6c0-0.3,0.2-0.4,0.4-0.4c0.3,0,0.4,0.1,0.4,0.4c0,0.1,0,0.2-0.1,0.3c-0.1,0.1-0.2,0.1-0.3,0.1
			C104.8,14,104.7,13.9,104.7,13.6z M105.6,17.1h-0.8v-2.8h0.8V17.1z"/>
		<path d="M108.1,14.9h-0.7v2.2h-0.8v-2.2h-0.5v-0.4l0.5-0.2v-0.2c0-0.3,0.1-0.6,0.3-0.7c0.2-0.1,0.4-0.2,0.8-0.2
			c0.3,0,0.5,0,0.8,0.1l-0.2,0.6c-0.2,0-0.3-0.1-0.5-0.1c-0.1,0-0.2,0-0.3,0.1c-0.1,0.1-0.1,0.1-0.1,0.2v0.2h0.7
			C108.1,14.3,108.1,14.9,108.1,14.9z M108.5,13.6c0-0.3,0.2-0.4,0.4-0.4c0.3,0,0.4,0.1,0.4,0.4c0,0.1,0,0.2-0.1,0.3
			c-0.1,0.1-0.2,0.1-0.3,0.1C108.7,14,108.5,13.9,108.5,13.6z M109.4,17.1h-0.8v-2.8h0.8V17.1z"/>
		<path d="M111.6,17.2c-0.5,0-0.9-0.1-1.1-0.4c-0.3-0.3-0.4-0.6-0.4-1.1c0-0.5,0.1-0.8,0.4-1.1c0.3-0.3,0.6-0.4,1-0.4s0.8,0.1,1,0.3
			c0.2,0.2,0.4,0.5,0.4,0.9v0.4H111c0,0.2,0.1,0.4,0.2,0.5s0.3,0.2,0.5,0.2s0.4,0,0.5-0.1c0.2,0,0.3-0.1,0.5-0.2v0.6
			c-0.1,0.1-0.3,0.1-0.5,0.2C112,17.2,111.8,17.2,111.6,17.2z M111.5,14.8c-0.2,0-0.3,0.1-0.4,0.2s-0.2,0.3-0.2,0.4h1.2
			c0-0.2-0.1-0.3-0.2-0.4C111.8,14.9,111.7,14.8,111.5,14.8z"/>
		<path d="M114.5,17.2c-0.4,0-0.6-0.1-0.8-0.4c-0.2-0.3-0.3-0.6-0.3-1.1c0-0.5,0.1-0.8,0.3-1.1c0.2-0.3,0.5-0.4,0.9-0.4
			s0.7,0.1,0.9,0.4l0,0c0-0.2-0.1-0.4-0.1-0.6v-0.9h0.8V17h-0.6l-0.2-0.4l0,0C115.1,17.1,114.8,17.2,114.5,17.2z M114.8,16.6
			c0.2,0,0.4-0.1,0.5-0.2s0.2-0.3,0.2-0.6v-0.1c0-0.3-0.1-0.5-0.2-0.7c-0.1-0.1-0.3-0.2-0.5-0.2s-0.3,0.1-0.4,0.2s-0.2,0.4-0.2,0.6
			c0,0.3,0.1,0.5,0.2,0.6C114.4,16.5,114.6,16.6,114.8,16.6z"/>
		<path d="M120.2,14.1c-0.3,0-0.6,0.1-0.7,0.3c-0.2,0.2-0.3,0.5-0.3,0.9c0,0.8,0.3,1.2,1,1.2c0.3,0,0.6-0.1,1-0.2V17
			c-0.3,0.1-0.7,0.2-1.1,0.2c-0.6,0-1-0.2-1.3-0.5s-0.5-0.8-0.5-1.4c0-0.4,0.1-0.7,0.2-1s0.4-0.5,0.6-0.7c0.3-0.2,0.6-0.2,1-0.2
			s0.8,0.1,1.2,0.3l-0.3,0.6c-0.1-0.1-0.3-0.1-0.4-0.2C120.5,14.1,120.3,14.1,120.2,14.1z"/>
		<path d="M124.7,15.7c0,0.5-0.1,0.8-0.4,1.1c-0.3,0.3-0.6,0.4-1.1,0.4c-0.3,0-0.5-0.1-0.8-0.2c-0.2-0.1-0.4-0.3-0.5-0.5
			s-0.2-0.5-0.2-0.8c0-0.5,0.1-0.8,0.4-1.1c0.3-0.3,0.6-0.4,1.1-0.4c0.3,0,0.5,0.1,0.8,0.2c0.2,0.1,0.4,0.3,0.5,0.5
			C124.6,15.2,124.7,15.4,124.7,15.7z M122.6,15.7c0,0.3,0,0.5,0.1,0.6s0.3,0.2,0.5,0.2s0.4-0.1,0.5-0.2s0.1-0.4,0.1-0.6
			c0-0.3,0-0.5-0.1-0.6s-0.3-0.2-0.5-0.2s-0.4,0.1-0.5,0.2C122.7,15.2,122.6,15.5,122.6,15.7z"/>
		<path d="M128.1,17.1h-0.8v-1.6c0-0.2,0-0.4-0.1-0.5s-0.2-0.2-0.3-0.2c-0.2,0-0.4,0.1-0.5,0.2s-0.1,0.4-0.1,0.7V17h-0.8v-2.8h0.5
			l0.1,0.4l0,0c0.1-0.1,0.2-0.2,0.4-0.3c0.2-0.1,0.3-0.1,0.5-0.1c0.5,0,0.8,0.1,0.9,0.4h0.1c0.1-0.1,0.2-0.2,0.4-0.3
			c0.2-0.1,0.3-0.1,0.5-0.1c0.3,0,0.6,0.1,0.8,0.2c0.2,0.2,0.3,0.4,0.3,0.8V17h-0.8v-1.6c0-0.2,0-0.4-0.1-0.5
			c-0.1-0.1-0.2-0.2-0.3-0.2c-0.2,0-0.4,0.1-0.5,0.2c-0.1,0.1-0.2,0.3-0.2,0.6C128.1,15.5,128.1,17.1,128.1,17.1z"/>
		<path d="M132.5,17.2c-0.4,0-0.6-0.1-0.8-0.4l0,0c0,0.2,0,0.4,0,0.4v1.1h-0.8v-4.1h0.7l0.1,0.4l0,0c0.2-0.3,0.5-0.4,0.9-0.4
			c0.4,0,0.6,0.1,0.8,0.4c0.2,0.3,0.3,0.6,0.3,1.1c0,0.3,0,0.6-0.1,0.8c-0.1,0.2-0.2,0.4-0.4,0.5C132.9,17.1,132.7,17.2,132.5,17.2z
			 M132.2,14.9c-0.2,0-0.4,0.1-0.4,0.2c-0.1,0.1-0.1,0.3-0.1,0.6v0.1c0,0.3,0,0.5,0.1,0.6c0.1,0.1,0.2,0.2,0.5,0.2
			c0.4,0,0.6-0.3,0.6-0.9c0-0.3,0-0.5-0.1-0.6C132.6,15,132.4,14.9,132.2,14.9z"/>
		<path d="M136.2,17.1l-0.2-0.4l0,0c-0.1,0.2-0.3,0.3-0.4,0.3c-0.1,0-0.3,0.1-0.6,0.1c-0.3,0-0.5-0.1-0.7-0.2
			c-0.2-0.2-0.2-0.4-0.2-0.7c0-0.3,0.1-0.5,0.3-0.7c0.2-0.1,0.6-0.2,1-0.2h0.5v-0.1c0-0.3-0.2-0.4-0.5-0.4c-0.2,0-0.5,0.1-0.9,0.2
			l-0.3-0.5c0.3-0.2,0.7-0.3,1.2-0.3c0.4,0,0.7,0.1,0.9,0.2c0.2,0.2,0.3,0.4,0.3,0.8v1.9C136.6,17.1,136.2,17.1,136.2,17.1z
			 M136,15.8h-0.3c-0.2,0-0.4,0-0.5,0.1c-0.1,0.1-0.2,0.2-0.2,0.3c0,0.2,0.1,0.3,0.4,0.3c0.2,0,0.3-0.1,0.5-0.2
			c0.1-0.1,0.2-0.2,0.2-0.4L136,15.8L136,15.8z"/>
		<path d="M140.4,17.1h-0.8v-1.6c0-0.2,0-0.4-0.1-0.5c-0.1-0.1-0.2-0.2-0.4-0.2c-0.2,0-0.4,0.1-0.5,0.2c-0.1,0.1-0.2,0.4-0.2,0.7V17
			h-0.8v-2.8h0.6l0.1,0.4l0,0c0.1-0.1,0.2-0.2,0.4-0.3c0.2-0.1,0.3-0.1,0.6-0.1c0.4,0,0.6,0.1,0.8,0.3c0.2,0.2,0.3,0.4,0.3,0.8V17.1
			z"/>
		<path d="M140.9,14.3h0.9l0.6,1.6c0,0.1,0.1,0.3,0.1,0.5l0,0c0-0.2,0.1-0.3,0.1-0.5l0.6-1.6h0.9l-1.3,3.2c-0.1,0.3-0.3,0.5-0.5,0.7
			c-0.2,0.1-0.5,0.2-0.8,0.2c-0.1,0-0.3,0-0.4,0v-0.6c0.1,0,0.2,0,0.3,0c0.1,0,0.3,0,0.4-0.1c0.1-0.1,0.2-0.2,0.3-0.4v-0.1
			L140.9,14.3z"/>
	</g>
	<g>
		<g>
			<path d="M3.3,13.2h1.1l1.2,3.9H4.7l-0.5-2c-0.1-0.4-0.2-0.9-0.3-1.3h0c-0.1,0.4-0.2,0.9-0.3,1.3l-0.5,2H2.1L3.3,13.2z M2.9,15.5
				h1.9v0.7H2.9V15.5z"/>
			<path d="M6,14.1h0.7l0.1,0.4h0c0.3-0.2,0.6-0.4,1-0.4c0.6,0,0.9,0.5,0.9,1.2v1.8H7.8v-1.7c0-0.4-0.1-0.6-0.4-0.6
				c-0.2,0-0.4,0.1-0.6,0.3v2H6V14.1z"/>
		</g>
	</g>
</g>
</svg>
