<?xml version="1.0" encoding="utf-8"?>
<!-- Generator: Adobe Illustrator 23.0.2, SVG Export Plug-In . SVG Version: 6.00 Build 0)  -->
<svg version="1.1" id="Layer_1" xmlns="http://www.w3.org/2000/svg" xmlns:xlink="http://www.w3.org/1999/xlink" x="0px" y="0px"
	 viewBox="0 0 158.9 89" style="enable-background:new 0 0 158.9 89;" xml:space="preserve">
<style type="text/css">
	.st0{fill:#262DA6;}
	.st1{enable-background:new    ;}
</style>
<g>
	<g>
		<path class="st0" d="M70.4,25.4h4.2v24.4h-4.8V30.5l-4.6,1.2l-1.3-4.1L70.4,25.4z"/>
		<path class="st0" d="M95.5,33.3c0,1.9-0.5,3.6-1.5,5l0,0l-7.6,11.5h-5.5l5.5-7.9c-2.5,0-4.6-0.9-6.2-2.5s-2.4-3.6-2.4-6.1
			s0.9-4.6,2.5-6.1s3.7-2.4,6.3-2.4s4.7,0.7,6.4,2.4C94.8,28.9,95.5,30.8,95.5,33.3z M82.6,33.3c0,1.2,0.4,2.2,1.1,2.9
			s1.7,1.1,2.9,1.1c1.2,0,2.1-0.4,3-1.1c0.7-0.7,1.1-1.7,1.1-2.9s-0.4-2.2-1.1-2.9c-0.7-0.7-1.7-1.1-3-1.1c-1.1,0-2.1,0.4-2.9,1.1
			C83,31.2,82.6,32.2,82.6,33.3z"/>
	</g>
	<g>
		<path class="st0" d="M83.7,66.8c0.5,1.3,1.5,2.3,3,3c1.6,0.7,3.2,0.8,4.8,0.2C89.4,67.5,86.9,66.4,83.7,66.8L83.7,66.8z
			 M75.9,66.8c-3.9-0.3-6.5,0.9-7.8,3.5c1.8,0.3,3.4,0.2,4.8-0.5C74.3,69,75.3,68,75.9,66.8L75.9,66.8z M89.6,65.5
			c0.5,1.1,1.7,1.9,3.6,2.3c2,0.4,3.4,0.2,4.7-0.7c-0.9-0.9-2-1.6-3.6-2C92.6,64.7,90.9,64.9,89.6,65.5L89.6,65.5z M70.1,65.5
			c-1.5-0.6-3.1-0.7-4.8-0.3c-1.6,0.4-2.8,1.1-3.6,2.2c1.4,0.7,3,0.8,4.8,0.4C68.2,67.3,69.3,66.6,70.1,65.5L70.1,65.5z M95.2,63
			c0.7,1,2.1,1.6,4.2,1.6c2.2,0,3.5-0.5,4.2-1.6c-1.1-0.7-2.5-1.1-4.2-1.1S96.2,62.3,95.2,63L95.2,63z M55.8,63.5
			c1,0.8,2.4,1.2,4.2,1.2c1.7,0,3.1-0.4,4.2-1.2c-0.7-1.1-2.1-1.6-4.2-1.6C58.2,61.9,56.7,62.5,55.8,63.5L55.8,63.5z M78.2,65.5
			c-0.6-3.4-2.7-5.2-6.2-5.7C72.7,63.2,74.8,65,78.2,65.5L78.2,65.5z M87.3,59.6c-3.4,1-5.4,3-5.9,5.9c1.8-0.2,3.2-0.9,4.3-2
			C86.7,62.5,87.3,61.1,87.3,59.6L87.3,59.6z M87.1,64.7c3-0.9,4.7-3.1,5.2-6.8C89.2,58.6,87.4,60.9,87.1,64.7L87.1,64.7z
			 M72.4,64.5c-0.7-3.7-2.4-5.9-5.2-6.6c0.1,1.8,0.5,3.3,1.6,4.5C69.9,63.6,71.1,64.3,72.4,64.5L72.4,64.5z M100.2,60
			c1.5,0.6,3,0.8,4.8,0.4c1.7-0.3,2.9-1.1,3.4-2.3c-1.4-0.6-3-0.7-4.8-0.3C102.1,58.1,100.8,58.9,100.2,60L100.2,60z M59.3,59.7
			c-0.8-0.9-2.1-1.6-3.7-2c-2-0.5-3.4-0.2-4.4,0.9c0.8,0.9,2,1.6,3.7,1.9C56.7,60.7,58.2,60.5,59.3,59.7L59.3,59.7z M92.7,62.6
			c1.1-0.3,2.1-1.2,2.9-2.7c0.9-1.7,1-3.3,0.4-4.8C93.2,57.2,91.9,59.8,92.7,62.6L92.7,62.6z M66.9,62.9c0.3-3.6-0.9-6.2-3.7-7.8
			c-0.3,1.8-0.1,3.4,0.7,4.8C64.6,61.2,65.7,62.2,66.9,62.9L66.9,62.9z M104.6,55.7c3.8,0.4,6.4-0.7,7.8-3.3
			c-1.8-0.4-3.4-0.2-4.8,0.4C106.2,53.5,105.2,54.4,104.6,55.7L104.6,55.7z M55.1,55.5c-2-2.8-4.6-3.8-7.8-3c0.3,1.1,1.2,2,2.8,2.7
			C51.7,55.8,53.3,55.9,55.1,55.5L55.1,55.5z M98.1,59.7c0.9-0.9,1.6-2.1,2-3.4c0.5-1.6,0.5-3.1-0.1-4.5c-1.2,0.4-2,1.6-2.5,3.4
			C96.8,57.2,97.1,58.6,98.1,59.7L98.1,59.7z M59.7,51.6c-0.6,1.5-0.8,3.1-0.2,4.8c0.5,1.6,1.2,2.8,2.5,3.4c0.5-1.6,0.5-3.2,0-4.8
			C61.7,53.5,60.8,52.4,59.7,51.6L59.7,51.6z M102.2,47.7c-0.9,0.9-1.3,2.2-1.4,4s0.2,3.2,1,4.2c1-0.6,1.6-2,1.8-4
			C103.7,49.9,103.3,48.5,102.2,47.7L102.2,47.7z M57.7,55.9c0.7-1.2,1-2.7,0.9-4.4c-0.1-1.8-0.7-3-1.7-3.7c-0.8,1-1.2,2.5-1,4.4
			S56.7,55.4,57.7,55.9L57.7,55.9z M108,50.6c3.7-0.2,6.1-1.8,7-4.7C111.2,46,109,47.6,108,50.6L108,50.6z M44.3,45.8
			c1.1,3,3.5,4.6,7.3,4.7C50.4,47.5,48.1,45.9,44.3,45.8L44.3,45.8z M105.8,51.4c0.5-1.4,0.8-2.9,0.5-4.6c-0.3-1.8-0.9-3-2-3.5
			c-0.8,1.2-1,2.7-0.7,4.5C104.1,49.7,104.7,50.8,105.8,51.4L105.8,51.4z M54.8,43.3c-0.9,0.9-1.5,2.1-1.7,3.7
			c-0.2,1.7,0,3.2,0.7,4.4c1.1-0.7,1.8-2,2-3.8C56.2,45.7,55.8,44.2,54.8,43.3L54.8,43.3z M110.3,44.8c3.4-0.5,5.4-2.4,6.2-5.7
			C113.2,39.4,111.2,41.4,110.3,44.8L110.3,44.8z M49.3,44.7c-1-3.1-3-5-6.2-5.7c0,1.5,0.6,2.9,1.9,4.1
			C46.2,44.2,47.7,44.7,49.3,44.7L49.3,44.7z M108.2,46.3c0.4-1.8,0.3-3.4-0.3-4.9c-0.5-1.4-1.4-2.4-2.6-3
			C104.7,41.8,105.7,44.4,108.2,46.3L108.2,46.3z M53.8,38.3c-2.5,2-3.4,4.7-2.7,8c1.2-0.6,2.2-1.7,2.8-3.3
			C54.7,41.3,54.6,39.8,53.8,38.3L53.8,38.3z M105.6,33.4c-0.2,1.9,0.2,3.5,1.1,4.8c0.9,1.2,1.9,2,3.2,2.3
			C109.8,37.1,108.5,34.7,105.6,33.4L105.6,33.4z M53.6,33.4c-3.1,2-4.4,4.4-3.7,7.3c1.3-0.9,2.4-1.8,3.1-3
			C53.9,36.3,54.2,34.9,53.6,33.4L53.6,33.4z M111.5,38.9c1.6-0.5,2.8-1.4,3.6-2.5c1-1.2,1.4-2.8,1.1-4.4
			C113.2,33.5,111.7,35.9,111.5,38.9L111.5,38.9z M47.8,38.9c-0.1-3.4-1.7-5.8-4.9-6.9C43.1,35.5,44.7,37.8,47.8,38.9L47.8,38.9z
			 M104.7,28.5c0.2,3.4,2.1,5.5,5.5,6.3C109.7,31.5,107.9,29.4,104.7,28.5L104.7,28.5z M49.6,35c3.2-1.3,5-3.4,5.3-6.3
			c-0.1-0.2-0.2-0.2-0.5-0.2c-1.5,0.5-2.7,1.2-3.7,2.5C49.7,32.3,49.2,33.7,49.6,35L49.6,35z M111.5,32.8c1.3-0.5,2.3-1.5,3-2.7
			c0.8-1.4,1-2.9,0.6-4.6c-1.2,0.3-2.1,1.1-2.8,2.4C111.7,29.3,111.5,30.9,111.5,32.8L111.5,32.8z M47.8,32.8
			c0.3-3.8-0.9-6.3-3.7-7.6C43.9,28.9,45.1,31.5,47.8,32.8L47.8,32.8z M102.9,24c0.5,1.6,1.3,2.7,2.4,3.7c1.2,1,2.7,1.4,4.4,1.2
			C108.2,25.7,105.8,24.1,102.9,24L102.9,24z M56.4,24c-3.4,0.2-5.5,1.9-6.6,5.1C53.3,28.9,55.6,27.2,56.4,24L56.4,24z M100.4,19.7
			c1,2.7,3.4,4.1,7.4,4.1C106.7,20.9,104.2,19.5,100.4,19.7L100.4,19.7z M51.7,23.8c1.6,0.1,3.2-0.3,4.5-1c1.4-0.8,2.3-1.8,2.9-3.1
			c-2-0.2-3.6,0.2-5,1C52.8,21.5,52.1,22.5,51.7,23.8L51.7,23.8z M112.3,18.7c-0.9,0.8-1.6,2-2,3.6c-0.5,1.8-0.3,3.3,0.5,4.6
			c1-0.7,1.8-1.9,2.3-3.6C113.5,21.3,113.3,19.8,112.3,18.7L112.3,18.7z M48.9,26.9c0.6-1.5,0.7-3,0.2-4.7c-0.4-1.6-1.2-2.8-2.3-3.4
			c-0.6,1.4-0.8,3-0.2,4.7C47.1,24.9,47.8,26.1,48.9,26.9L48.9,26.9z M54.4,18.7c1.8,0.4,3.4,0.3,5-0.2c1.5-0.5,2.5-1.3,3-2.5
			c-1.8-0.4-3.4-0.3-4.9,0.2C56.1,16.6,54.9,17.5,54.4,18.7L54.4,18.7z M96.9,16.4c2,2.3,4.7,3,8.2,2.3c-0.6-1.2-1.8-2.1-3.5-2.7
			C99.8,15.5,98.2,15.6,96.9,16.4L96.9,16.4z M108.7,12.7c-0.8,0.9-1.2,2.3-1.3,4.1c-0.1,1.8,0.2,3.2,0.9,4.3c1.1-0.7,1.7-2,1.8-4.1
			C110.2,15,109.7,13.6,108.7,12.7L108.7,12.7z M51.1,21.1c0.8-1.2,1.2-2.7,1.1-4.4c-0.1-1.8-0.6-3.1-1.6-4c-0.8,1-1.2,2.5-1,4.4
			C49.7,19.1,50.2,20.5,51.1,21.1L51.1,21.1z M93.1,13.4c0.7,0.9,2.1,1.5,4.1,1.6c2.1,0.2,3.5-0.2,4.3-1.2c-1.1-0.9-2.5-1.3-4.1-1.5
			C95.6,12.1,94.2,12.4,93.1,13.4L93.1,13.4z M66.3,13.1c-1.1-0.8-2.5-1-4.3-0.9c-1.6,0.2-2.9,0.7-4,1.5c0.8,1,2.2,1.4,4.4,1.2
			C64.6,14.9,65.8,14.2,66.3,13.1L66.3,13.1z M88.4,11.3c1.2,0.7,2.7,0.9,4.6,0.8c1.9-0.2,3.1-0.8,3.8-1.8c-1.1-0.8-2.7-1.1-4.5-0.9
			C90.6,9.6,89.2,10.2,88.4,11.3L88.4,11.3z M70.8,11.3c-0.6-1.1-2-1.8-4-2s-3.4,0.2-4.5,1.2c0.9,0.8,2.3,1.3,4,1.6
			C68.2,12.3,69.7,12,70.8,11.3L70.8,11.3z M105.3,16c0.6-1.4,0.8-3,0.5-4.7c-0.3-1.8-0.9-3-2-3.7c-0.8,1.2-1,2.8-0.6,4.7
			S104.3,15.4,105.3,16L105.3,16z M55.4,7.7c-1,0.8-1.6,2.1-1.9,3.9c-0.3,1.9,0,3.4,0.9,4.4c0.9-0.9,1.6-2.3,1.9-3.9
			C56.6,10.3,56.2,8.8,55.4,7.7L55.4,7.7z M75.8,9.9c-2-2.4-4.8-3.3-8-2.4c0.3,1.1,1.4,2,3.1,2.6C72.7,10.6,74.3,10.6,75.8,9.9
			L75.8,9.9z M83.8,10.1c1.6,0.5,3.3,0.5,4.8-0.1s2.6-1.3,3.2-2.6C90.1,7,88.5,7,87,7.6C85.6,8.1,84.4,8.8,83.8,10.1L83.8,10.1z
			 M80.7,66.9c9.4-1.3,16.8-4.7,22-10.2c6.4-6.8,9.3-14.8,8.6-23.9c-0.4-5.9-2.7-11.4-6.9-16.5c-4.2-5.1-8.7-8.5-13.4-9.9
			c6.5,3.6,11.2,7.4,14.4,11.4c4.1,5.4,6,11.7,5.5,19c-0.5,7.2-3,13.4-7.8,18.7c-4.5,5-10.1,8.4-16.9,9.9c-4.3,1-8.4,1.1-12.3,0.2
			C67.1,64,61.4,60.8,56.8,56c-4.9-5.2-7.6-11.2-8.2-18c-0.6-7.4,1-13.9,5.1-19.5c3.2-4.5,8.1-8.6,14.7-12.3
			C54.6,13,47.8,22.8,48.1,35.9c0.2,8.2,3.3,15.3,9.4,21.5c5.1,5.1,12.2,8.4,21.4,9.8c-4.2,2.1-6.4,5.2-6.6,9.4
			c0.5-0.5,0.9-1.2,1.2-2.1c0.3-1.3,0.5-2.1,0.7-2.4c1.1-2,3-3.6,5.8-4.7c1.8,0.5,3.4,1.8,4.5,3.7c0.5,0.9,1.4,2.7,2.7,5.5
			C87.3,72.8,85.2,69.6,80.7,66.9L80.7,66.9z M101.1,11.5c0.4-1.7,0.3-3.4-0.2-4.8c-0.5-1.5-1.4-2.4-2.7-3c-0.4,1.7-0.3,3.3,0.3,4.8
			C99.1,9.9,99.9,10.9,101.1,11.5L101.1,11.5z M61.1,3.5c-2.5,2.2-3.4,4.8-2.7,8c1.2-0.5,2.2-1.6,2.8-3.3
			C61.7,6.5,61.7,4.9,61.1,3.5L61.1,3.5z M90.9,5.6c-0.9-1.2-2-2-3.3-2.6c-1.6-0.7-3.2-0.7-4.8-0.1c0.9,1.1,2,2,3.3,2.6
			C87.9,6.2,89.4,6.2,90.9,5.6L90.9,5.6z M76.3,2.5c-3.8-0.4-6.4,0.7-7.8,3.3c1.8,0.4,3.4,0.2,4.9-0.4S75.9,3.8,76.3,2.5L76.3,2.5z
			 M96.2,8.1c0.1-3.6-1.3-6-4.3-7.3C91.7,4,93.1,6.4,96.2,8.1L96.2,8.1z M67.3,0.6c-2.6,1.4-4,3.8-4.1,7.2c1.3-0.2,2.4-1.1,3.4-2.5
			C67.7,3.8,67.9,2.2,67.3,0.6L67.3,0.6z"/>
	</g>
	<g class="st1">
		<path class="st0" d="M3.7,87.8V84l-3.2-4.4H3l1.8,2.6l1.8-2.6H9L5.8,84v3.8H3.7z"/>
		<path class="st0" d="M13.5,86.1v1.1c-0.7,0.5-1.5,0.7-2.5,0.7s-1.8-0.3-2.3-0.8c-0.6-0.5-0.9-1.2-0.9-2.1c0-0.8,0.3-1.5,0.8-2.1
			c0.5-0.5,1.2-0.8,2.1-0.8s1.5,0.3,2.1,0.9s0.8,1.3,0.8,2.3h-4c0,0.5,0.2,0.9,0.5,1.2c0.3,0.3,0.8,0.4,1.3,0.4
			C12.1,86.9,12.8,86.7,13.5,86.1z M9.7,84.4h2.4c-0.1-0.8-0.5-1.2-1.2-1.2C10.2,83.2,9.8,83.6,9.7,84.4z"/>
		<path class="st0" d="M20.4,86.5v1c-0.6,0.3-1.1,0.5-1.6,0.5s-0.9-0.2-1-0.6C17.2,87.8,16.6,88,16,88c-0.4,0-0.8-0.1-1.1-0.4
			s-0.5-0.6-0.5-0.9c0-0.5,0.2-0.9,0.5-1.2c0.3-0.3,1.3-0.7,2.8-1.1c0-0.6-0.3-0.9-1-0.9c-0.7,0-1.4,0.3-2,0.9V83
			c0.7-0.4,1.5-0.7,2.4-0.7c1.6,0,2.3,0.6,2.3,1.7v2.5c0,0.3,0.1,0.4,0.3,0.4C19.9,86.8,20.1,86.7,20.4,86.5z M17.7,86.5v-1.3
			c-0.6,0.2-1,0.4-1.2,0.5c-0.2,0.2-0.3,0.4-0.3,0.6s0.1,0.3,0.2,0.4s0.2,0.2,0.4,0.2C17.1,86.9,17.4,86.8,17.7,86.5z"/>
		<path class="st0" d="M22.9,82.3v1.6l0,0c0.5-1.1,1.1-1.7,1.8-1.7c0.3,0,0.7,0.2,1.2,0.5l-0.5,1.5c-0.4-0.3-0.8-0.4-1-0.4
			c-0.4,0-0.7,0.2-1,0.7S23,85.3,23,85.4v2.4h-1.7v-5.5H22.9z"/>
		<path class="st0" d="M30.3,82.6v1.2c-0.7-0.4-1.3-0.6-1.8-0.6c-0.4,0-0.6,0.1-0.6,0.4c0,0.1,0,0.1,0.1,0.2s0.4,0.2,1,0.5
			c0.6,0.2,1,0.5,1.2,0.8s0.4,0.6,0.4,1c0,0.6-0.2,1-0.6,1.3s-0.9,0.5-1.7,0.5c-0.7,0-1.4-0.1-2-0.4v-1.2c0.7,0.3,1.3,0.5,1.8,0.5
			c0.6,0,0.8-0.1,0.8-0.4c0-0.1-0.1-0.2-0.2-0.3s-0.5-0.3-1-0.5c-0.6-0.2-1-0.5-1.2-0.8s-0.3-0.6-0.3-0.9c0-0.5,0.2-0.9,0.6-1.2
			c0.4-0.3,1-0.5,1.7-0.5C29.2,82.2,29.8,82.3,30.3,82.6z"/>
		<path class="st0" d="M37.8,82.2c0.9,0,1.6,0.3,2.2,0.8c0.6,0.5,0.9,1.2,0.9,2.1s-0.3,1.6-0.9,2.1c-0.6,0.5-1.3,0.8-2.2,0.8
			s-1.7-0.3-2.3-0.8s-0.9-1.2-0.9-2.1s0.3-1.6,0.9-2.1C36.2,82.5,36.9,82.2,37.8,82.2z M37.8,86.9c0.8,0,1.2-0.6,1.2-1.9
			c0-1.2-0.4-1.8-1.2-1.8c-0.4,0-0.7,0.2-0.9,0.5s-0.3,0.8-0.3,1.4C36.5,86.3,37,86.9,37.8,86.9z"/>
		<path class="st0" d="M44.1,82.3h0.8v1.2h-0.8v4.3h-1.7v-4.3h-0.8v-1.2h0.8V82c0-0.8,0.2-1.4,0.7-1.8s1-0.7,1.8-0.7
			c0.2,0,0.5,0,1.1,0.1V81c-0.4,0-0.6-0.1-0.8-0.1c-0.6,0-1,0.3-1,1L44.1,82.3L44.1,82.3z"/>
		<path class="st0" d="M49.2,79.7h3.5c0.8,0,1.5,0.2,2,0.6s0.7,0.9,0.7,1.4c0,0.7-0.4,1.3-1.1,1.6c0.6,0.1,1,0.4,1.3,0.8
			s0.4,0.8,0.4,1.3c0,0.7-0.2,1.3-0.7,1.7c-0.5,0.4-1.2,0.7-2.2,0.7h-4L49.2,79.7L49.2,79.7z M51.3,81.2V83h1.1
			c0.3,0,0.6-0.1,0.8-0.3s0.3-0.4,0.3-0.6c0-0.3-0.1-0.5-0.3-0.6s-0.4-0.2-0.8-0.2h-1.1V81.2z M51.3,84.4v1.9h1.1
			c0.5,0,0.9-0.1,1.2-0.2s0.4-0.4,0.4-0.8c0-0.3-0.1-0.5-0.3-0.7s-0.5-0.2-0.9-0.2C52.8,84.4,51.3,84.4,51.3,84.4z"/>
		<path class="st0" d="M61.2,87.8V87c-0.5,0.6-1.1,0.9-1.8,0.9c-0.6,0-1.1-0.2-1.5-0.6s-0.6-0.9-0.6-1.5v-3.5H59v3.4
			c0,0.7,0.3,1.1,0.9,1.1c0.3,0,0.6-0.1,0.8-0.4S61,86,61,85.8v-3.5h2v5.5H61.2z"/>
		<path class="st0" d="M68.2,82.6v1.2c-0.7-0.4-1.3-0.6-1.8-0.6c-0.4,0-0.6,0.1-0.6,0.4c0,0.1,0,0.1,0.1,0.2s0.4,0.2,1,0.5
			c0.6,0.2,1,0.5,1.2,0.8s0.4,0.6,0.4,1c0,0.6-0.2,1-0.6,1.3s-0.9,0.5-1.7,0.5c-0.7,0-1.4-0.1-2-0.4v-1.2c0.7,0.3,1.3,0.5,1.8,0.5
			c0.6,0,0.8-0.1,0.8-0.4c0-0.1-0.1-0.2-0.2-0.3s-0.5-0.3-1-0.5c-0.6-0.2-1-0.5-1.2-0.8s-0.3-0.6-0.3-0.9c0-0.5,0.2-0.9,0.6-1.2
			c0.4-0.3,1-0.5,1.7-0.5S67.7,82.3,68.2,82.6z"/>
		<path class="st0" d="M69.5,80.5c0-0.3,0.1-0.5,0.3-0.7s0.4-0.3,0.7-0.3c0.3,0,0.5,0.1,0.7,0.3s0.3,0.4,0.3,0.7
			c0,0.3-0.1,0.5-0.3,0.7s-0.4,0.3-0.7,0.3c-0.3,0-0.5-0.1-0.7-0.3S69.5,80.8,69.5,80.5z M71.3,82.3v5.5h-1.7v-5.5H71.3z"/>
		<path class="st0" d="M74.5,82.3v0.8c0.5-0.6,1.1-0.9,1.8-0.9c0.6,0,1.1,0.2,1.4,0.6c0.4,0.4,0.6,0.9,0.6,1.6v3.5h-1.7v-3.4
			c0-0.7-0.3-1.1-0.9-1.1c-0.4,0-0.8,0.3-1.2,0.9v3.6h-1.7v-5.5L74.5,82.3L74.5,82.3z"/>
		<path class="st0" d="M85.2,86.1v1.1c-0.7,0.5-1.5,0.7-2.5,0.7s-1.8-0.3-2.3-0.8c-0.6-0.5-0.9-1.2-0.9-2.1c0-0.8,0.3-1.5,0.8-2.1
			c0.5-0.5,1.2-0.8,2.1-0.8s1.5,0.3,2.1,0.9s0.8,1.3,0.8,2.3h-4c0,0.5,0.2,0.9,0.5,1.2c0.3,0.3,0.8,0.4,1.3,0.4
			C83.8,86.9,84.5,86.7,85.2,86.1z M81.4,84.4h2.4c-0.1-0.8-0.5-1.2-1.2-1.2C81.8,83.2,81.4,83.6,81.4,84.4z"/>
		<path class="st0" d="M90.2,82.6v1.2c-0.7-0.4-1.3-0.6-1.8-0.6c-0.4,0-0.6,0.1-0.6,0.4c0,0.1,0,0.1,0.1,0.2s0.4,0.2,1,0.5
			s1,0.5,1.2,0.8s0.4,0.6,0.4,1c0,0.6-0.2,1-0.6,1.3s-0.9,0.5-1.7,0.5c-0.7,0-1.4-0.1-2-0.4v-1.2c0.7,0.3,1.3,0.5,1.8,0.5
			c0.6,0,0.8-0.1,0.8-0.4c0-0.1-0.1-0.2-0.2-0.3c-0.1-0.1-0.5-0.3-1-0.5c-0.6-0.2-1-0.5-1.2-0.8s-0.3-0.6-0.3-0.9
			c0-0.5,0.2-0.9,0.6-1.2c0.4-0.3,1-0.5,1.7-0.5S89.7,82.3,90.2,82.6z"/>
		<path class="st0" d="M95.3,82.6v1.2c-0.7-0.4-1.3-0.6-1.8-0.6c-0.4,0-0.6,0.1-0.6,0.4c0,0.1,0,0.1,0.1,0.2s0.4,0.2,1,0.5
			s1,0.5,1.2,0.8s0.4,0.6,0.4,1c0,0.6-0.2,1-0.6,1.3s-0.9,0.5-1.7,0.5c-0.7,0-1.4-0.1-2-0.4v-1.2c0.7,0.3,1.3,0.5,1.8,0.5
			c0.6,0,0.8-0.1,0.8-0.4c0-0.1-0.1-0.2-0.2-0.3c-0.1-0.1-0.5-0.3-1-0.5c-0.6-0.2-1-0.5-1.2-0.8s-0.3-0.6-0.3-0.9
			c0-0.5,0.2-0.9,0.6-1.2c0.4-0.3,1-0.5,1.7-0.5C94.2,82.2,94.8,82.3,95.3,82.6z"/>
		<path class="st0" d="M106.2,86.3v1.5h-6v-8.2h6v1.5h-3.9v1.7h3.7v1.5h-3.7v2H106.2z"/>
		<path class="st0" d="M113.3,82.3l-2.2,2.7l2.3,2.8h-2l-1.3-1.7l-1.3,1.7h-2l2.3-2.8l-2.3-2.7h2l1.2,1.6l1.1-1.6H113.3z"/>
		<path class="st0" d="M119.1,86.3v1.2c-0.7,0.2-1.3,0.4-1.9,0.4c-1,0-1.8-0.3-2.3-0.8c-0.6-0.5-0.9-1.2-0.9-2.1
			c0-0.8,0.3-1.5,0.9-2.1c0.6-0.5,1.3-0.8,2.2-0.8c0.6,0,1.2,0.1,1.9,0.4v1.3c-0.5-0.2-1-0.4-1.4-0.4c-0.5,0-0.9,0.1-1.2,0.4
			c-0.3,0.3-0.5,0.7-0.5,1.2s0.2,0.9,0.5,1.2c0.3,0.3,0.7,0.4,1.2,0.4C117.9,86.7,118.4,86.6,119.1,86.3z"/>
		<path class="st0" d="M125.6,86.1v1.1c-0.7,0.5-1.5,0.7-2.5,0.7s-1.8-0.3-2.3-0.8c-0.6-0.5-0.9-1.2-0.9-2.1c0-0.8,0.3-1.5,0.8-2.1
			c0.5-0.5,1.2-0.8,2.1-0.8s1.5,0.3,2.1,0.9s0.8,1.3,0.8,2.3h-4c0,0.5,0.2,0.9,0.5,1.2c0.3,0.3,0.8,0.4,1.3,0.4
			C124.2,86.9,124.9,86.7,125.6,86.1z M121.8,84.4h2.4c-0.1-0.8-0.5-1.2-1.2-1.2C122.3,83.2,121.9,83.6,121.8,84.4z"/>
		<path class="st0" d="M128.6,79.7v8.2h-1.7v-8.2H128.6z"/>
		<path class="st0" d="M131.9,79.7v8.2h-1.7v-8.2H131.9z"/>
		<path class="st0" d="M138.8,86.1v1.1c-0.7,0.5-1.5,0.7-2.5,0.7s-1.8-0.3-2.3-0.8c-0.6-0.5-0.9-1.2-0.9-2.1c0-0.8,0.3-1.5,0.8-2.1
			c0.5-0.5,1.2-0.8,2.1-0.8c0.9,0,1.5,0.3,2.1,0.9s0.8,1.3,0.8,2.3h-4c0,0.5,0.2,0.9,0.5,1.2c0.3,0.3,0.8,0.4,1.3,0.4
			C137.4,86.9,138,86.7,138.8,86.1z M134.9,84.4h2.4c-0.1-0.8-0.5-1.2-1.2-1.2C135.4,83.2,135,83.6,134.9,84.4z"/>
		<path class="st0" d="M141.7,82.3v0.8c0.5-0.6,1.1-0.9,1.8-0.9c0.6,0,1.1,0.2,1.4,0.6c0.4,0.4,0.6,0.9,0.6,1.6v3.5h-1.7v-3.4
			c0-0.7-0.3-1.1-0.9-1.1c-0.4,0-0.8,0.3-1.2,0.9v3.6H140v-5.5L141.7,82.3L141.7,82.3z"/>
		<path class="st0" d="M151.8,86.3v1.2c-0.7,0.2-1.3,0.4-1.9,0.4c-1,0-1.8-0.3-2.3-0.8c-0.6-0.5-0.9-1.2-0.9-2.1
			c0-0.8,0.3-1.5,0.9-2.1c0.6-0.5,1.3-0.8,2.2-0.8c0.6,0,1.2,0.1,1.9,0.4v1.3c-0.5-0.2-1-0.4-1.4-0.4c-0.5,0-0.9,0.1-1.2,0.4
			s-0.5,0.7-0.5,1.2s0.2,0.9,0.5,1.2c0.3,0.3,0.7,0.4,1.2,0.4C150.6,86.7,151.1,86.6,151.8,86.3z"/>
		<path class="st0" d="M158.4,86.1v1.1c-0.7,0.5-1.5,0.7-2.5,0.7s-1.8-0.3-2.3-0.8c-0.6-0.5-0.9-1.2-0.9-2.1c0-0.8,0.3-1.5,0.8-2.1
			c0.5-0.5,1.2-0.8,2.1-0.8c0.9,0,1.5,0.3,2.1,0.9s0.8,1.3,0.8,2.3h-4c0,0.5,0.2,0.9,0.5,1.2c0.3,0.3,0.8,0.4,1.3,0.4
			C157,86.9,157.7,86.7,158.4,86.1z M154.5,84.4h2.4c-0.1-0.8-0.5-1.2-1.2-1.2C155,83.2,154.6,83.6,154.5,84.4z"/>
	</g>
</g>
</svg>
