<?xml version="1.0" encoding="utf-8"?>
<!-- Generator: Adobe Illustrator 24.1.0, SVG Export Plug-In . SVG Version: 6.00 Build 0)  -->
<svg version="1.1" id="Layer_1" xmlns="http://www.w3.org/2000/svg" xmlns:xlink="http://www.w3.org/1999/xlink" x="0px" y="0px"
	 viewBox="0 0 42.8 42.8" style="enable-background:new 0 0 42.8 42.8;" xml:space="preserve">
<style type="text/css">
	.st0{fill:#FFFFFF;}
</style>
<path class="st0" d="M42.8,21.4c0,4.3,0,7.2-0.1,8.8c-0.2,3.9-1.3,6.9-3.5,9s-5.1,3.3-9,3.5c-1.6,0.1-4.6,0.1-8.8,0.1
	c-4.3,0-7.2,0-8.8-0.1c-3.9-0.2-6.9-1.3-9-3.5c-2.1-2.1-3.3-5.1-3.5-9C0,28.6,0,25.6,0,21.4s0-7.2,0.1-8.8c0.2-3.9,1.3-6.9,3.5-9
	c2.1-2.1,5.1-3.3,9-3.5C14.2,0,17.2,0,21.4,0c4.3,0,7.2,0,8.8,0.1c3.9,0.2,6.9,1.3,9,3.5s3.3,5.1,3.5,9
	C42.7,14.2,42.8,17.1,42.8,21.4z M23.5,3.8c-1.3,0-2,0-2.1,0s-0.8,0-2.1,0c-1.3,0-2.3,0-2.9,0c-0.7,0-1.6,0-2.7,0.1
	c-1.1,0-2.1,0.1-2.9,0.3c-0.8,0.1-1.5,0.3-2,0.5C7.9,5.1,7.1,5.6,6.3,6.3C5.6,7,5.1,7.8,4.7,8.8c-0.2,0.5-0.4,1.2-0.5,2
	c-0.1,0.8-0.2,1.7-0.3,2.9c0,1.1-0.1,2-0.1,2.7s0,1.7,0,2.9c0,1.3,0,2,0,2.1s0,0.8,0,2.1c0,1.3,0,2.3,0,2.9c0,0.7,0,1.6,0.1,2.7
	c0,1.1,0.1,2.1,0.3,2.9c0.2,0.8,0.3,1.5,0.5,2c0.4,0.9,0.9,1.7,1.6,2.5c0.7,0.7,1.5,1.2,2.5,1.6c0.5,0.2,1.2,0.4,2,0.5
	c0.8,0.1,1.7,0.2,2.9,0.3s2,0.1,2.7,0.1s1.7,0,2.9,0c1.3,0,2,0,2.1,0s0.8,0,2.1,0c1.3,0,2.3,0,2.9,0c0.7,0,1.6,0,2.7-0.1
	c1.1,0,2.1-0.1,2.9-0.3c0.8-0.1,1.5-0.3,2-0.5c0.9-0.4,1.7-0.9,2.5-1.6c0.7-0.7,1.2-1.5,1.6-2.5c0.2-0.5,0.4-1.2,0.5-2
	c0.1-0.8,0.2-1.7,0.3-2.9c0-1.1,0.1-2,0.1-2.7s0-1.7,0-2.9c0-1.3,0-2,0-2.1s0-0.8,0-2.1c0-1.3,0-2.3,0-2.9c0-0.7,0-1.6-0.1-2.7
	c0-1.1-0.1-2.1-0.3-2.9c-0.1-0.8-0.3-1.5-0.5-2c-0.4-0.9-0.9-1.7-1.6-2.5C35.8,5.6,35,5.1,34,4.7c-0.5-0.2-1.2-0.4-2-0.5
	c-0.8-0.1-1.7-0.2-2.9-0.3c-1.1,0-2-0.1-2.7-0.1C25.8,3.8,24.8,3.8,23.5,3.8z M29.1,13.6c2.1,2.1,3.2,4.7,3.2,7.8s-1.1,5.6-3.2,7.8
	c-2.1,2.1-4.7,3.2-7.8,3.2s-5.6-1.1-7.8-3.2c-2.1-2.1-3.2-4.7-3.2-7.8s1.1-5.6,3.2-7.8c2.1-2.1,4.7-3.2,7.8-3.2S27,11.4,29.1,13.6z
	 M26.4,26.4c1.4-1.4,2.1-3.1,2.1-5s-0.7-3.7-2.1-5.1s-3.1-2.1-5.1-2.1s-3.7,0.7-5.1,2.1s-2.1,3.1-2.1,5.1s0.7,3.7,2.1,5
	c1.4,1.4,3.1,2.1,5.1,2.1C23.3,28.5,25,27.8,26.4,26.4z M34.6,8.1c0.5,0.5,0.8,1.1,0.8,1.8c0,0.7-0.3,1.3-0.8,1.8s-1.1,0.8-1.8,0.8
	s-1.3-0.3-1.8-0.8s-0.8-1.1-0.8-1.8c0-0.7,0.3-1.3,0.8-1.8s1.1-0.8,1.8-0.8S34.1,7.6,34.6,8.1z"/>
</svg>
