<?xml version="1.0" encoding="UTF-8"?>
<svg width="181px" height="52px" viewBox="0 0 181 52" version="1.1" xmlns="http://www.w3.org/2000/svg" xmlns:xlink="http://www.w3.org/1999/xlink">
    <!-- Generator: Sketch 55.2 (78181) - https://sketchapp.com -->
    <title>Group</title>
    <desc>Created with Sketch.</desc>
    <g id="Page-1" stroke="none" stroke-width="1" fill="none" fill-rule="evenodd">
        <g id="Group" fill="#FF2D20">
            <g id="logomark.min">
                <path d="M49.626,11.564 C49.6444116,11.6321467 49.654,11.7024101 49.654,11.773 L49.654,22.745 C49.654,23.0316473 49.5006562,23.296393 49.252,23.439 L40.043,28.741 L40.043,39.25 C40.043,39.536 39.891,39.8 39.643,39.944 L20.42,51.01 C20.376,51.035 20.328,51.051 20.28,51.068 C20.262,51.074 20.245,51.085 20.226,51.09 C20.091624,51.1253866 19.950376,51.1253866 19.816,51.09 C19.794,51.084 19.774,51.072 19.753,51.064 C19.709,51.048 19.663,51.034 19.621,51.01 L0.402,39.944 C0.153495216,39.8012409 0,39.5365916 0,39.25 L0,6.334 C0,6.262 0.01,6.192 0.028,6.124 C0.034,6.101 0.048,6.08 0.056,6.057 C0.071,6.015 0.085,5.972 0.107,5.933 C0.122,5.907 0.144,5.886 0.162,5.862 C0.185,5.83 0.206,5.797 0.233,5.769 C0.256,5.746 0.286,5.729 0.312,5.709 C0.341,5.685 0.367,5.659 0.4,5.64 L0.401,5.64 L10.011,0.107 C10.2586309,-0.0354949799 10.5633691,-0.0354949799 10.811,0.107 L20.421,5.64 L20.423,5.64 C20.455,5.66 20.482,5.685 20.511,5.708 C20.537,5.728 20.566,5.746 20.589,5.768 C20.617,5.797 20.637,5.83 20.661,5.862 C20.678,5.886 20.701,5.907 20.715,5.933 C20.738,5.973 20.751,6.015 20.767,6.057 C20.775,6.08 20.789,6.101 20.795,6.125 C20.8134116,6.19314672 20.8228249,6.26341011 20.823,6.334 L20.823,26.893 L28.831,22.282 L28.831,11.772 C28.831,11.702 28.841,11.631 28.859,11.564 C28.866,11.54 28.879,11.519 28.887,11.496 C28.903,11.454 28.917,11.411 28.939,11.372 C28.954,11.346 28.976,11.325 28.993,11.301 C29.017,11.269 29.037,11.236 29.065,11.208 C29.088,11.185 29.117,11.168 29.143,11.148 C29.173,11.124 29.199,11.098 29.231,11.079 L29.232,11.079 L38.843,5.546 C39.090576,5.40329971 39.395424,5.40329971 39.643,5.546 L49.253,11.079 C49.287,11.099 49.313,11.124 49.343,11.147 C49.368,11.167 49.397,11.185 49.42,11.207 C49.448,11.236 49.468,11.269 49.492,11.301 C49.51,11.325 49.532,11.346 49.546,11.372 C49.569,11.411 49.582,11.454 49.598,11.496 C49.607,11.519 49.62,11.54 49.626,11.564 Z M48.052,22.282 L48.052,13.158 L44.689,15.094 L40.043,17.769 L40.043,26.893 L48.053,22.282 L48.052,22.282 Z M38.442,38.787 L38.442,29.657 L33.872,32.267 L20.822,39.715 L20.822,48.931 L38.442,38.787 Z M1.602,7.719 L1.602,38.787 L19.22,48.93 L19.22,39.716 L10.016,34.507 L10.013,34.505 L10.009,34.503 C9.978,34.485 9.952,34.459 9.923,34.437 C9.898,34.417 9.869,34.401 9.847,34.379 L9.845,34.376 C9.819,34.351 9.801,34.32 9.779,34.292 C9.759,34.265 9.735,34.242 9.719,34.214 L9.718,34.211 C9.7,34.181 9.689,34.145 9.676,34.111 C9.663,34.081 9.646,34.053 9.638,34.021 L9.638,34.02 C9.628,33.982 9.626,33.942 9.622,33.903 C9.618,33.873 9.61,33.843 9.61,33.813 L9.61,33.811 L9.61,12.33 L4.965,9.654 L1.602,7.72 L1.602,7.719 Z M10.412,1.725 L2.405,6.334 L10.41,10.943 L18.416,6.333 L10.41,1.725 L10.412,1.725 Z M14.576,30.489 L19.221,27.815 L19.221,7.719 L15.858,9.655 L11.212,12.33 L11.212,32.426 L14.576,30.489 Z M39.243,7.164 L31.237,11.773 L39.243,16.382 L47.248,11.772 L39.243,7.164 Z M38.442,17.769 L33.796,15.094 L30.433,13.158 L30.433,22.282 L35.078,24.956 L38.442,26.893 L38.442,17.769 Z M20.02,38.33 L31.763,31.626 L37.633,28.276 L29.633,23.67 L20.422,28.973 L12.027,33.806 L20.02,38.33 Z" id="Shape"></path>
            </g>
            <g id="logotype.min" transform="translate(67.000000, 12.000000)">
                <path d="M4.773,0.917 L4.773,23.963 L13.111,23.963 L13.111,27.939 L0.333,27.939 L0.333,0.917 L4.773,0.917 Z M28.783,12.382 L28.783,9.95 L32.991,9.95 L32.991,27.94 L28.784,27.94 L28.784,25.507 C28.217,26.408 27.414,27.116 26.371,27.63 C25.329,28.145 24.28,28.402 23.225,28.402 C21.86,28.402 20.612,28.152 19.48,27.65 C18.3766905,27.168955 17.3843777,26.4656555 16.565,25.584 C15.753142,24.7070506 15.1121589,23.6862256 14.675,22.574 C14.2193862,21.4183951 13.9895707,20.1861496 13.998,18.944 C13.998,17.684 14.223,16.48 14.674,15.334 C15.1083906,14.2141748 15.7499179,13.1862384 16.565,12.304 C17.3846248,11.4228781 18.3768922,10.7199511 19.48,10.239 C20.612,9.737 21.86,9.487 23.225,9.487 C24.28,9.487 25.329,9.744 26.371,10.259 C27.413,10.774 28.217,11.481 28.784,12.382 L28.783,12.382 Z M28.397,21.145 C28.6561621,20.4406127 28.7872265,19.6955439 28.7840582,18.945 C28.7840582,18.172 28.654,17.439 28.397,16.745 C28.155822,16.0767654 27.7892572,15.4607329 27.317,14.93 C26.8456092,14.4094452 26.274263,13.9890976 25.637,13.694 C24.981,13.386 24.254,13.231 23.457,13.231 C22.658,13.231 21.937,13.386 21.294,13.694 C20.6646841,13.992685 20.1005565,14.4127222 19.634,14.93 C19.16331,15.4579848 18.8029153,16.0747356 18.574,16.744 C18.3266427,17.4509484 18.2021771,18.195036 18.2059145,18.944 C18.2059145,19.716 18.328,20.45 18.573,21.144 C18.817,21.84 19.171,22.444 19.635,22.959 C20.1013606,23.4764929 20.6655341,23.8965643 21.295,24.195 C21.937,24.504 22.658,24.658 23.456,24.658 C24.254,24.658 24.981,24.504 25.637,24.195 C26.2744168,23.9001627 26.8458119,23.4797792 27.317,22.959 C27.7892478,22.4286372 28.1558192,21.8129331 28.397,21.145 L28.397,21.145 Z M36.311,27.939 L36.311,9.95 L47.738,9.95 L47.738,14.091 L40.518,14.091 L40.518,27.941 L36.311,27.941 L36.311,27.939 Z M62.986,12.382 L62.986,9.95 L67.194,9.95 L67.194,27.94 L62.986,27.94 L62.986,25.507 C62.42,26.408 61.616,27.116 60.573,27.63 C59.531,28.145 58.483,28.402 57.427,28.402 C56.063,28.402 54.815,28.152 53.683,27.65 C52.5796905,27.168955 51.5873777,26.4656555 50.768,25.584 C49.9557847,24.7071334 49.3144591,23.6863031 48.877,22.574 C48.421728,21.4183278 48.1922524,20.1860846 48.201,18.944 C48.201,17.684 48.426,16.48 48.877,15.334 C49.3110906,14.2142529 49.9522753,13.1863219 50.767,12.304 C51.5869167,11.4227661 52.5795342,10.7198323 53.683,10.239 C54.815,9.737 56.063,9.487 57.427,9.487 C58.482,9.487 59.531,9.744 60.573,10.259 C61.616,10.774 62.42,11.481 62.986,12.382 L62.986,12.382 Z M62.6,21.145 C62.8588213,20.4405503 62.9895467,19.6954834 62.9860703,18.945 C62.9860703,18.172 62.856,17.439 62.6,16.745 C62.358822,16.0767654 61.9922572,15.4607329 61.52,14.93 C61.0486092,14.4094452 60.477263,13.9890976 59.84,13.694 C59.184,13.386 58.456,13.231 57.659,13.231 C56.861,13.231 56.14,13.386 55.497,13.694 C54.8676841,13.992685 54.3035565,14.4127222 53.837,14.93 C53.3659521,15.4578979 53.005214,16.0746546 52.776,16.744 C52.5289828,17.4510079 52.4048558,18.1950938 52.4088996,18.944 C52.4088996,19.716 52.53,20.45 52.776,21.144 C53.02,21.84 53.374,22.444 53.837,22.959 C54.3033606,23.4764929 54.8675341,23.8965643 55.497,24.195 C56.14,24.504 56.861,24.658 57.659,24.658 C58.456,24.658 59.184,24.504 59.84,24.195 C60.4774168,23.9001627 61.0488119,23.4797792 61.52,22.959 C61.9922478,22.4286372 62.3588192,21.8129331 62.6,21.145 L62.6,21.145 Z M84.063,9.95 L88.325,9.95 L81.42,27.94 L76.13,27.94 L69.224,9.95 L73.486,9.95 L78.775,23.726 L84.063,9.95 Z M97.503,9.487 C103.232,9.487 107.139,14.565 106.405,20.508 L92.446,20.508 C92.446,22.06 94.013,25.06 97.734,25.06 C100.934,25.06 103.079,22.245 103.08,22.243 L105.923,24.443 C103.381,27.156 101.3,28.403 98.041,28.403 C92.218,28.403 88.271,24.719 88.271,18.945 C88.271,13.722 92.35,9.487 97.502,9.487 L97.503,9.487 Z M92.457,17.381 L102.541,17.381 C102.51,17.035 101.963,12.829 97.469,12.829 C92.974,12.829 92.489,17.035 92.457,17.381 Z M109.145,27.939 L109.145,0.917 L113.353,0.917 L113.353,27.939 L109.145,27.939 Z" id="Shape"></path>
            </g>
        </g>
    </g>
</svg>