<?xml version="1.0" encoding="utf-8"?>
<!-- Generator: Adobe Illustrator 24.1.0, SVG Export Plug-In . SVG Version: 6.00 Build 0)  -->
<svg version="1.1" id="MASTER_LOGO_RGB" xmlns="http://www.w3.org/2000/svg" xmlns:xlink="http://www.w3.org/1999/xlink" x="0px"
	 y="0px" viewBox="0 0 631.1 786.9" style="enable-background:new 0 0 631.1 786.9;" xml:space="preserve">
<style type="text/css">
	.st0{fill:#FFFFFF;}
	.st1{fill:#56C0EE;}
	.st2{fill:#FFCB05;}
	.st3{fill:#F7FCFE;stroke:#FFFFFF;stroke-width:0.15;stroke-miterlimit:10;}
</style>
<g>
	<path d="M631.1,8.7C631.1,8.7,631.1,8.7,631.1,8.7c0-4.8-3.8-8.6-8.5-8.7c-0.1,0-0.1,0-0.2,0c-0.1,0-0.1,0-0.2,0H8.9
		C8.8,0,8.7,0,8.7,0C8.6,0,8.5,0,8.5,0C3.9,0.1,0.2,3.8,0,8.3c0,0.1,0,0.2,0,0.3C0,8.8,0,8.9,0,9l0.1,278.7c0.2,7.7,1,13.8,2.5,19.2
		c0.1,2.7,4.6,10.6,5.8,12.4L288,764.9c4.6,8,9,13.1,13,16.4c1.1,1,2.3,1.8,3.5,2.5c0.5,0.3,0.9,0.6,1.4,0.8
		c2.9,1.4,6.1,2.2,9.5,2.2c0.7,0,1.4,0,2.1-0.1c0.2,0,0.4-0.1,0.7-0.1c0.5-0.1,0.9-0.1,1.4-0.2c0.3-0.1,0.5-0.1,0.8-0.2
		c0.4-0.1,0.8-0.2,1.2-0.3c0.3-0.1,0.5-0.2,0.8-0.3c0.1-0.1,0.3-0.1,0.5-0.1h0c0,0,0.1,0,0.1,0c0.1,0,0.1,0,0.2-0.1
		c2.8-1,5.2-2.4,8.9-5.9c3.5-3.3,7.2-7.9,11.1-14.6l279.5-445.6c1.2-1.8,5.7-9.7,5.8-12.4c1.6-5.4,2.4-11.5,2.5-19.2L631.1,8.7
		L631.1,8.7z"/>
	<polygon class="st0" points="202.3,525.3 315.6,345.3 428.9,525.3 	"/>
	<path class="st0" d="M35.2,315.4"/>
	<polygon class="st1" points="294.8,321.4 170.2,517.6 46.9,321.4 	"/>
	<polygon class="st1" points="191.9,555.6 439,555.6 315.6,751.7 	"/>
	<path class="st0" d="M596.8,315.4"/>
	<path class="st0" d="M325.4,315.4"/>
	<polygon class="st1" points="461,517.6 336.3,321.4 584.3,321.4 	"/>
	<path class="st2" d="M74.3,55.8c0-1.3,1-2.4,2.4-2.4h30.2c15.8,0,28.8,12.8,28.8,28.4c0,15.9-13,28.9-28.6,28.9H91v30.2
		c0,1.3-1.2,2.4-2.4,2.4H76.7c-1.4,0-2.4-1.2-2.4-2.4V55.8z M105.9,95c7.2,0,13.2-5.8,13.2-13.3c0-7.1-6-12.5-13.2-12.5H91V95H105.9
		z"/>
	<path class="st2" d="M153.8,55.8c0-1.3,1-2.4,2.4-2.4h11.8c1.3,0,2.4,1.2,2.4,2.4v72h32.7c1.4,0,2.4,1.1,2.4,2.4v10.5
		c0,1.3-1,2.4-2.4,2.4h-47c-1.4,0-2.4-1.2-2.4-2.4V55.8z"/>
	<path class="st2" d="M217.6,139.9l39.9-86.4c0.4-0.8,1-1.4,2.2-1.4h1.3c1.3,0,1.8,0.6,2.2,1.4l39.5,86.4c0.8,1.7-0.2,3.3-2.2,3.3
		h-11.1c-1.9,0-2.9-0.8-3.7-2.6l-6.3-13.9h-38.4l-6.3,13.9c-0.5,1.3-1.7,2.6-3.7,2.6h-11.2C217.8,143.2,216.8,141.6,217.6,139.9z
		 M273,112.5l-12.8-28.2h-0.4l-12.6,28.2H273z"/>
	<path class="st2" d="M318.4,54.4c0-1.3,1.1-2.3,2.4-2.3h3.2l53.4,56.7h0.1v-53c0-1.3,1-2.4,2.5-2.4h11.8c1.3,0,2.4,1.2,2.4,2.4
		v86.4c0,1.3-1.1,2.3-2.4,2.3h-3.1l-53.7-58.9H335v55.2c0,1.3-1,2.4-2.5,2.4h-11.7c-1.3,0-2.4-1.2-2.4-2.4V54.4z"/>
	<path class="st2" d="M421.5,55.8c0-1.3,1-2.4,2.4-2.4h52.3c1.4,0,2.5,1.2,2.5,2.4v10.5c0,1.3-1,2.4-2.5,2.4h-38v21h31.7
		c1.3,0,2.4,1.2,2.4,2.4v10.7c0,1.4-1.1,2.4-2.4,2.4h-31.7v22.5h38c1.4,0,2.5,1.1,2.5,2.4v10.5c0,1.3-1,2.4-2.5,2.4h-52.3
		c-1.4,0-2.4-1.2-2.4-2.4V55.8z"/>
	<path class="st2" d="M519.3,68.8h-19.6c-1.4,0-2.5-1.2-2.5-2.4V55.8c0-1.3,1-2.4,2.5-2.4h56.1c1.4,0,2.4,1.2,2.4,2.4v10.5
		c0,1.3-1,2.4-2.4,2.4h-19.6v72c0,1.3-1.2,2.4-2.4,2.4h-12c-1.3,0-2.5-1.2-2.5-2.4V68.8z"/>
	<path class="st3" d="M75.1,264.7l39.9-86.4c0.4-0.8,1-1.4,2.2-1.4h1.3c1.3,0,1.8,0.6,2.2,1.4l39.5,86.4c0.8,1.7-0.2,3.3-2.2,3.3
		h-11.2c-1.9,0-2.8-0.8-3.7-2.6l-6.3-13.9H98.5l-6.3,13.9c-0.5,1.3-1.7,2.6-3.7,2.6H77.3C75.3,268,74.3,266.4,75.1,264.7z
		 M130.5,237.4l-12.8-28.2h-0.4l-12.6,28.2H130.5z"/>
	<path class="st3" d="M181.2,180.6c0-1.3,1-2.4,2.4-2.4h36.7c15.4,0,28,12.3,28,27.6c0,11.8-7.8,21.4-19,25.9l17.6,32.6
		c0.9,1.6,0,3.7-2.2,3.7h-13.5c-1.2,0-1.8-0.6-2.1-1.2l-17.1-34h-14.2v32.7c0,1.3-1.2,2.4-2.4,2.4h-11.8c-1.4,0-2.4-1.2-2.4-2.4
		V180.6z M218.9,219.1c6.8,0,12.7-5.9,12.7-13.1c0-6.8-5.9-12.4-12.7-12.4H198v25.5H218.9z"/>
	<path class="st3" d="M312.8,176.9c11.6,0,22.6,4.5,31.3,11.9c1,1,1.2,2.6,0.1,3.6l-8,8.3c-1,1-2.2,1-3.3,0
		c-5.5-4.9-12.3-7.4-19.4-7.4c-16.1,0-28.8,13.7-28.8,29.8c0,15.9,12.7,29.4,28.9,29.4c7.2,0,12.7-2.2,15.3-3.2v-10.9h-10.3
		c-1.4,0-2.4-1-2.4-2.3v-10.1c0-1.4,1-2.5,2.4-2.5h24.6c1.3,0,2.3,1.2,2.3,2.5v32.8c0,1-0.5,1.7-1,2.1c0,0-13.2,8.4-31.8,8.4
		c-25.5,0-46.1-20.3-46.1-46C266.7,197.6,287.3,176.9,312.8,176.9z"/>
	<path class="st3" d="M412.5,176.9c25.7,0,46.2,20.7,46.2,46.3c0,25.7-20.6,46.1-46.2,46.1c-25.7,0-46.1-20.4-46.1-46.1
		C366.4,197.6,386.8,176.9,412.5,176.9z M412.5,252.6c16.2,0,29.5-13.2,29.5-29.4c0-16.2-13.4-29.7-29.5-29.7
		c-16.2,0-29.4,13.5-29.4,29.7C383.1,239.4,396.3,252.6,412.5,252.6z"/>
	<path class="st3" d="M480.8,179.2c0-1.3,1.2-2.3,2.4-2.3h3.2l53.4,56.7h0.1v-53c0-1.3,1-2.4,2.5-2.4h11.8c1.3,0,2.4,1.2,2.4,2.4
		V267c0,1.3-1.1,2.3-2.4,2.3h-3.1l-53.7-58.9h-0.1v55.2c0,1.3-1,2.4-2.4,2.4h-11.7c-1.3,0-2.4-1.2-2.4-2.4V179.2z"/>
</g>
<g>
</g>
</svg>
